<svg width="34" height="34" viewBox="0 0 34 34" fill="none" xmlns="http://www.w3.org/2000/svg">
<path d="M17.2323 13.4477V18.981C17.2323 19.5339 17.679 19.9818 18.2319 19.9811C20.1426 19.9786 24.2992 19.9735 26.2779 19.9735C24.8602 24.2104 22.6565 26.5172 17.2323 26.5172C11.7428 26.5172 7.45818 22.1286 7.45818 16.7144C7.45818 11.3016 11.7428 6.91301 17.2323 6.91301C20.1344 6.91301 22.009 7.91924 23.7283 9.32128C25.1043 7.96422 24.9894 7.77017 28.4907 4.5086C25.5181 1.84074 21.5678 0.215088 17.2323 0.215088C7.99212 0.215088 0.5 7.60182 0.5 16.7144C0.5 25.8271 7.99212 33.2151 17.2323 33.2151C31.0442 33.2151 34.4202 21.3549 33.3014 13.4477H17.2323Z" fill="#2DD3E3"/>
</svg>
