<svg width="2000" height="745" viewBox="0 0 2000 745" fill="none" xmlns="http://www.w3.org/2000/svg">
<g clip-path="url(#clip0_1_2)">
<rect width="2000" height="745" fill="#EAF8BF"/>
<path d="M2000 289.059L1694.32 323.061C1644.51 328.602 1598.07 350.955 1562.67 386.432V386.432C1528.76 420.409 1484.69 442.389 1437.16 449.033L1246.05 475.744C1177.41 485.338 1110.85 506.335 1049.13 537.867V537.867C969.175 578.71 881.331 601.767 791.627 605.454L372.69 622.672C340.481 623.996 308.42 627.782 276.789 633.997L142.596 660.363C86.7452 671.337 36.3842 701.228 7.62939e-05 745V745V289.059V3.3766e-05L2000 3.3766e-05V289.059Z" fill="#C3BEF7"/>
</g>
<defs>
<clipPath id="clip0_1_2">
<rect width="2000" height="745" fill="white"/>
</clipPath>
</defs>
</svg>
