<svg width="425" height="286" viewBox="0 0 425 286" fill="none" xmlns="http://www.w3.org/2000/svg">
<path opacity="0.52" d="M415.753 202.021L414.467 198.7L404.397 209.841C404.397 209.841 404.397 209.841 404.29 209.841L151.474 207.163C145.153 207.055 136.262 208.662 131.548 210.697L37.0634 250.545H1.71191L2.56892 266.719C2.46179 267.041 2.46179 267.362 2.56892 267.683L2.67604 268.754H4.1758C5.13994 269.076 6.42544 269.29 8.13945 269.397L338.836 286C350.299 286.536 362.725 283.322 366.261 278.823L415.753 218.41V202.021Z" fill="#017CE6"/>
<path d="M402.148 197.094L149.331 190.988C142.582 190.774 137.654 184.668 138.297 177.277L153.08 18.8524C153.723 11.8898 159.615 5.99845 166.15 5.89134L412.003 -5.03492e-05C419.502 -0.214283 425.287 5.78422 424.965 13.2823L416.931 183.061C416.503 190.881 409.861 197.201 402.148 197.094Z" fill="#BFDFF6"/>
<g opacity="0.5">
<path opacity="0.5" d="M390.364 185.953L161.222 181.026C154.152 180.919 149.01 174.492 149.652 166.78L161.758 34.0628C162.4 26.6718 168.614 20.6733 175.47 20.459L399.041 16.0673C406.754 15.9602 412.86 22.1729 412.432 29.9924L405.468 171.386C405.147 179.634 398.291 186.168 390.364 185.953ZM175.577 21.6373C169.256 21.7444 163.579 27.3145 162.936 34.1699L150.831 166.887C150.188 173.956 154.902 179.848 161.436 179.955L390.471 184.775C397.755 184.882 404.076 178.884 404.397 171.386L411.467 30.0995C411.789 22.9227 406.325 17.1384 399.148 17.3527L175.577 21.6373Z" fill="#0E2433"/>
</g>
<path d="M337.122 270.361L6.31832 253.758C-1.50185 253.329 -1.07335 250.223 7.0682 246.795L129.727 195.058C134.441 193.023 143.439 191.523 149.652 191.523L402.469 194.201C410.825 194.308 416.181 196.237 414.36 198.593L364.439 263.077C361.011 267.683 348.585 270.896 337.122 270.361Z" fill="#BFDFF6"/>
<path opacity="0.47" d="M384.793 197.415L154.473 194.63C147.724 194.523 138.297 196.237 133.262 198.379L82.2705 220.445C75.8429 223.23 76.4857 225.801 84.0916 226.015L349.977 234.37C360.262 234.691 371.188 232.12 374.081 228.693L396.684 202.235C398.827 199.664 393.47 197.522 384.793 197.415ZM177.934 211.661L195.824 212.09L186.932 217.017L168.721 216.589L177.934 211.661ZM167.542 216.481L149.76 216.053L159.401 211.34L176.862 211.768L167.542 216.481ZM196.895 212.09L215.106 212.518L206.536 217.445L187.896 217.017L196.895 212.09ZM216.285 212.518L234.925 212.947L226.783 217.981L207.715 217.553L216.285 212.518ZM236.103 212.947L255.171 213.375L247.458 218.41L227.961 217.981L236.103 212.947ZM256.457 213.375L275.954 213.804L268.669 218.945L248.744 218.41L256.457 213.375ZM277.132 213.911L297.057 214.339L290.309 219.588L269.955 219.052L277.132 213.911ZM298.343 214.339L318.697 214.768L312.376 220.016L291.594 219.481L298.343 214.339ZM298.879 213.911L304.235 209.733L324.16 210.162L319.125 214.339L298.879 213.911ZM297.593 213.911L277.668 213.482L283.452 209.412L302.949 209.733L297.593 213.911ZM276.489 213.375L257.1 212.947L263.206 208.876L282.274 209.198L276.489 213.375ZM255.814 212.947L236.746 212.518L243.173 208.555L261.813 208.876L255.814 212.947ZM235.567 212.518L216.927 212.09L223.783 208.126L242.102 208.448L235.567 212.518ZM215.856 212.09L197.645 211.661L204.715 207.805L222.605 208.126L215.856 212.09ZM196.466 211.661L178.684 211.233L186.075 207.377L203.644 207.698L196.466 211.661ZM177.505 211.34L160.044 211.019L167.757 207.162L184.897 207.484L177.505 211.34ZM158.972 210.911L141.832 210.59L149.76 206.841L166.578 207.162L158.972 210.911ZM140.868 210.483L124.157 210.162L132.405 206.413L148.903 206.734L140.868 210.483ZM140.011 210.911L130.049 215.625L113.016 215.196L123.3 210.59L140.011 210.911ZM141.082 210.911L158.223 211.233L148.581 215.946L131.12 215.517L141.082 210.911ZM147.724 216.481L137.547 221.516L119.764 220.98L130.263 216.053L147.724 216.481ZM148.903 216.481L166.685 216.91L156.83 221.944L138.619 221.409L148.903 216.481ZM167.864 216.91L186.075 217.338L176.648 222.48L158.115 221.944L167.864 216.91ZM187.254 217.445L205.893 217.874L196.895 223.123L177.934 222.587L187.254 217.445ZM207.072 217.874L226.14 218.302L217.57 223.551L198.073 223.016L207.072 217.874ZM227.319 218.41L246.815 218.838L238.674 224.194L218.749 223.658L227.319 218.41ZM248.101 218.945L268.026 219.481L260.313 224.944L239.959 224.408L248.101 218.945ZM269.312 219.481L289.666 220.016L282.488 225.586L261.599 225.051L269.312 219.481ZM290.951 220.016L311.841 220.552L305.199 226.122L283.881 225.479L290.951 220.016ZM313.233 220.552L334.551 221.087L328.445 226.765L306.592 226.122L313.233 220.552ZM313.769 220.123L320.089 214.875L340.979 215.303L335.194 220.659L313.769 220.123ZM320.518 214.339L325.553 210.162L346.014 210.59L341.407 214.875L320.518 214.339ZM325.981 209.733L330.802 205.663L350.835 205.984L346.442 210.054L325.981 209.733ZM324.696 209.733L304.77 209.305L309.913 205.341L329.516 205.663L324.696 209.733ZM303.485 209.305L283.988 208.983L289.451 205.02L308.627 205.341L303.485 209.305ZM282.81 208.983L263.741 208.662L269.633 204.806L288.38 205.127L282.81 208.983ZM262.563 208.555L243.923 208.233L250.136 204.377L268.455 204.699L262.563 208.555ZM242.745 208.126L224.426 207.805L230.961 204.056L248.958 204.377L242.745 208.126ZM223.248 207.805L205.358 207.484L212.214 203.735L229.783 204.056L223.248 207.805ZM204.287 207.484L186.825 207.162L193.895 203.52L211.143 203.842L204.287 207.484ZM185.647 207.055L168.507 206.734L175.898 203.092L192.824 203.413L185.647 207.055ZM167.435 206.734L150.617 206.413L158.223 202.771L174.827 203.092L167.435 206.734ZM149.545 206.413L133.048 206.091L140.975 202.556L157.258 202.878L149.545 206.413ZM132.084 206.091L117.193 205.77L125.335 202.235L140.011 202.449L132.084 206.091ZM131.334 206.413L123.085 210.162L107.873 209.84L116.336 206.198L131.334 206.413ZM122.228 210.483L111.944 215.089L96.5182 214.66L107.124 210.054L122.228 210.483ZM111.087 215.517L100.268 220.445L84.5201 220.016L95.6612 215.196L111.087 215.517ZM112.159 215.517L129.192 215.946L118.693 220.873L101.339 220.338L112.159 215.517ZM117.836 221.302L107.231 226.229L89.555 225.693L100.482 220.766L117.836 221.302ZM118.907 221.409L136.69 221.944L126.406 226.979L108.302 226.443L118.907 221.409ZM137.869 221.944L156.08 222.48L146.224 227.622L127.692 227.086L137.869 221.944ZM157.258 222.48L304.663 226.657L297.914 232.335L147.403 227.622L157.258 222.48ZM306.056 226.55L328.017 227.193L321.803 232.977L299.307 232.227L306.056 226.55ZM329.302 227.3L351.799 227.943L346.121 233.834L323.089 233.084L329.302 227.3ZM329.838 226.765L335.944 221.087L357.798 221.623L352.227 227.407L329.838 226.765ZM336.48 220.659L342.264 215.303L363.582 215.732L358.333 221.195L336.48 220.659ZM342.586 214.875L347.192 210.59L368.082 211.019L363.904 215.303L342.586 214.875ZM347.621 210.162L352.013 206.091L372.474 206.413L368.51 210.59L347.621 210.162ZM352.441 205.663L356.619 201.807L376.652 202.128L372.902 206.091L352.441 205.663ZM351.156 205.663L331.23 205.341L335.837 201.485L355.441 201.807L351.156 205.663ZM329.945 205.341L310.448 205.02L315.376 201.271L334.551 201.592L329.945 205.341ZM309.163 205.02L290.094 204.699L295.343 200.95L314.09 201.271L309.163 205.02ZM288.809 204.699L270.062 204.377L275.632 200.628L294.058 200.95L288.809 204.699ZM268.99 204.27L250.672 203.949L256.564 200.307L274.561 200.521L268.99 204.27ZM249.494 203.949L231.604 203.628L237.817 199.986L255.493 200.2L249.494 203.949ZM230.425 203.628L212.857 203.306L219.391 199.771L236.639 199.986L230.425 203.628ZM211.785 203.413L194.538 203.092L201.394 199.557L218.32 199.771L211.785 203.413ZM193.467 203.092L176.541 202.771L183.611 199.236L200.216 199.45L193.467 203.092ZM175.577 202.771L159.08 202.449L166.364 199.022L182.647 199.236L175.577 202.771ZM157.901 202.449L141.725 202.128L149.331 198.7L165.293 198.914L157.901 202.449ZM140.761 202.235L126.085 202.021L133.905 198.593L148.367 198.807L140.761 202.235ZM83.2346 220.552L83.556 220.445L99.3034 220.873L88.3766 225.801L84.9486 225.693C77.9854 225.372 77.3427 223.123 83.2346 220.552ZM372.581 228.586C369.903 231.692 359.833 234.156 350.406 233.834L347.621 233.727L353.191 227.836L372.581 228.371L373.009 227.836L353.727 227.3L359.297 221.516L378.152 221.944L378.58 221.516L359.833 221.087L365.082 215.625L383.401 216.053L383.722 215.625L365.404 215.196L369.581 210.911L387.579 211.233L387.9 210.804L370.01 210.483L373.974 206.305L391.542 206.627L391.864 206.198L374.295 205.877L378.044 201.914L395.292 202.128L395.613 201.699L378.473 201.485L382.222 197.629H380.937L377.187 201.485L357.155 201.164L361.226 197.308H360.047L355.869 201.164L336.265 200.842L340.765 196.986H339.586L335.087 200.735L315.912 200.414L320.732 196.665H319.554L314.626 200.414L295.879 200.093L301.128 196.344H299.95L294.701 200.093L276.382 199.878L281.953 196.237H280.774L275.097 200.307L257.1 200.093L262.991 196.451H261.92L256.028 200.093L238.353 199.878L244.566 196.344H243.495L237.281 199.878L220.034 199.664L226.462 196.129H225.39L218.856 199.664L201.93 199.45L208.679 195.915H207.607L200.859 199.45L184.254 199.236L191.324 195.808H190.253L183.183 199.236L166.9 199.022L174.184 195.594H173.22L165.936 199.022L149.974 198.807L157.473 195.38H156.509L149.01 198.807L134.548 198.593C139.261 196.665 147.617 195.165 153.723 195.272L384.365 198.165C392.399 198.272 397.327 200.2 395.292 202.556L372.581 228.586Z" fill="#0E2433"/>
<path opacity="0.31" d="M205.679 259.435L117.622 255.257C108.837 254.829 107.445 251.508 114.301 247.866L136.155 236.298C142.154 233.192 153.402 230.835 161.543 231.156L242.423 233.834C251.315 234.156 255.064 237.048 250.458 240.475L233.317 253.008C228.068 256.971 215.427 259.863 205.679 259.435Z" stroke="#0E2433" stroke-miterlimit="10"/>
<path d="M367.76 271.111C367.439 271.111 367.01 271.004 366.796 270.789C366.153 270.254 366.046 269.183 366.582 268.54L402.79 224.301C403.326 223.658 404.397 223.551 405.04 224.087C405.683 224.622 405.79 225.694 405.254 226.336L369.046 270.575C368.617 270.897 368.189 271.111 367.76 271.111Z" fill="#017CE6"/>
<path d="M407.718 220.552C407.504 220.552 407.183 220.445 406.968 220.338C406.326 219.909 406.111 219.159 406.54 218.517L410.718 212.625C411.146 211.983 412.003 211.876 412.753 212.197C413.396 212.625 413.61 213.375 413.182 214.018L409.004 219.909C408.682 220.338 408.254 220.552 407.718 220.552Z" fill="#017CE6"/>
<path d="M334.337 281.608C334.337 281.608 334.23 281.608 334.337 281.608L315.054 280.537C314.197 280.537 313.448 279.68 313.555 278.823C313.555 277.966 314.412 277.323 315.269 277.323L334.444 278.395C335.301 278.395 336.051 279.252 335.944 280.109C335.837 280.965 335.194 281.608 334.337 281.608Z" fill="#017CE6"/>
<path d="M284.095 14.2463C285.278 14.2463 286.238 13.2872 286.238 12.104C286.238 10.9208 285.278 9.96167 284.095 9.96167C282.912 9.96167 281.953 10.9208 281.953 12.104C281.953 13.2872 282.912 14.2463 284.095 14.2463Z" fill="#0E2433"/>
<path d="M291.808 14.2463C292.992 14.2463 293.951 13.2872 293.951 12.104C293.951 10.9208 292.992 9.96167 291.808 9.96167C290.625 9.96167 289.666 10.9208 289.666 12.104C289.666 13.2872 290.625 14.2463 291.808 14.2463Z" fill="#00C5BA"/>
<path opacity="0.19" d="M162.936 34.17L150.831 166.887C150.831 166.887 146.974 175.992 160.579 177.384C174.184 178.777 396.149 184.561 396.149 184.561C396.149 184.561 351.799 135.181 288.059 135.93C224.319 136.68 218.642 98.6539 212.857 87.9423C207.072 77.1236 197.538 27.6359 162.936 34.17Z" fill="#017CE6"/>
<g opacity="0.33">
<path opacity="0.33" d="M406.54 131.646L403.326 131.539L402.683 76.2666L401.933 76.4809C398.398 77.6591 390.042 75.8382 389.935 75.8382L389.293 75.731V86.8711H373.224V76.6951L372.581 77.1236C368.51 79.373 363.261 77.6591 363.154 77.6591L362.511 77.4449L361.226 129.718H362.297L362.94 101.439H372.26V130.575L211.143 125.433L211.464 106.902L204.608 107.009C207.929 103.046 211.571 97.6899 210.928 94.0479C210.607 92.5483 209.964 91.6913 209 91.4771C208.25 91.2629 207.286 91.6913 206.429 92.2269C208.464 88.6921 210.5 84.1932 208.893 82.158C208.25 81.4082 207.715 81.4082 207.286 81.4082C206.108 81.6224 205.144 83.5505 204.394 85.5857C204.608 79.0516 204.394 68.4471 200.751 66.6262C199.894 66.1977 199.359 66.4119 199.037 66.7333C197.109 68.2329 197.859 76.0524 198.716 82.3722C197.752 80.5513 196.359 78.9445 194.538 78.3018C193.681 77.9805 193.253 78.3018 192.931 78.5161C191.217 80.2299 193.895 89.7633 196.038 96.4045C194.967 95.4404 193.681 94.5835 191.967 94.155C190.896 93.9408 190.467 94.2621 190.253 94.6906C189.075 96.4045 192.503 102.403 195.395 107.116L188.86 107.223V124.683L154.473 123.612V124.683L188.86 125.754V126.076L211.143 126.718V126.504L406.54 132.717V131.646ZM191.217 95.3333C191.217 95.2262 191.324 95.2262 191.539 95.2262C191.646 95.2262 191.86 95.2262 191.86 95.2262C194.86 95.8689 196.574 98.2254 197.431 99.9393C197.752 100.903 198.073 101.76 198.288 102.189L199.359 101.867C199.359 101.76 199.145 100.689 198.502 99.2966C195.609 90.9415 192.61 80.4442 194.003 79.1588C194.003 79.1588 194.11 79.0516 194.431 79.1588C197.752 80.4442 199.359 85.4786 199.894 88.1565C200.002 88.7992 200.109 89.4419 200.216 89.7633L201.287 89.549C201.287 89.4419 201.18 88.6921 200.966 87.7281C199.573 79.9086 198.18 68.7685 199.894 67.376C200.002 67.376 200.109 67.2689 200.537 67.376C204.287 69.3041 203.858 84.4074 203.322 90.1917L204.394 90.406C205.251 86.764 206.75 82.5865 207.822 82.3722C207.822 82.3722 208.036 82.2651 208.357 82.6936C209.964 84.7288 205.893 91.9056 202.894 96.0831C202.894 96.0831 202.894 96.1902 202.787 96.1902L203.644 96.8329C203.644 96.8329 203.644 96.7258 203.751 96.7258C205.144 94.9048 207.715 92.1198 209 92.4412C209.643 92.5483 209.964 93.5123 210.071 94.155C210.714 97.5827 206.75 103.046 203.43 107.009L197.002 107.116C193.253 101.653 190.467 96.2973 191.217 95.3333ZM189.932 108.294L210.393 107.973L210.071 125.326L189.932 124.683V108.294ZM372.26 100.368H363.047L363.582 78.9445C365.082 79.373 368.939 80.0157 372.367 78.5161V100.368H372.26ZM390.471 77.0164C392.399 77.4449 398.291 78.4089 401.719 77.6591L402.255 121.148L391.221 121.791L391.328 122.862L402.255 122.219V126.076H391.007L390.471 87.4067V77.0164ZM373.331 101.439L373.438 100.368H373.331V87.9423H389.4V99.6179H389.614L389.828 113.864L373.331 114.4V101.439ZM373.331 130.575V115.471L389.828 114.936L390.042 130.896H391.114V127.147H402.255V131.431L373.331 130.575Z" fill="#017CE6"/>
<path opacity="0.33" d="M372.26 107.116H363.047V108.187H372.26V107.116Z" fill="#017CE6"/>
</g>
<path d="M216.284 175.884C215.856 163.031 216.392 150.284 217.677 137.537C218.963 125.647 221.319 113.114 229.782 104.652C236.853 97.5826 247.137 94.6905 256.992 93.1908C270.704 91.1556 284.738 91.3699 298.557 92.3339C307.448 92.9766 316.554 93.8335 325.017 96.7257C333.48 99.6178 341.514 104.652 346.549 112.043C355.012 124.469 353.834 140.75 352.334 155.747C351.477 164.852 350.513 173.956 349.656 183.061L216.284 175.884Z" fill="#FFC329"/>
<path opacity="0.85" d="M254.85 92.9767L273.704 93.8336L274.454 34.1699C274.454 34.1699 257.421 35.134 252.814 56.0216C248.208 76.9092 249.494 87.4066 254.85 92.9767Z" fill="#0E2433"/>
<path d="M280.667 79.5871C280.667 79.5871 273.704 108.08 270.169 111.401C266.634 114.721 291.594 131.003 300.807 114.828C300.807 114.828 297.807 101.439 301.343 81.1938C304.878 61.056 285.488 65.662 280.667 79.5871Z" fill="#F9B191"/>
<path opacity="0.51" d="M270.276 112.472C277.346 114.4 285.488 102.51 288.595 97.1543C293.844 88.3707 295.558 78.1947 297.807 68.34C292.558 65.7692 283.667 70.8037 280.56 79.6943C280.56 79.6943 273.597 108.187 270.062 111.508C269.848 111.722 269.74 112.043 269.74 112.365C269.955 112.365 270.062 112.472 270.276 112.472Z" fill="#F9B191"/>
<path d="M265.134 110.33L243.709 114.079L240.602 188.524L302.092 199.557L319.768 122.755L300.7 115.364C300.7 115.471 271.454 110.33 265.134 110.33Z" fill="#FF537C"/>
<path d="M256.457 62.4486C256.457 62.7699 256.457 63.0913 256.564 63.4126C256.35 67.483 256.242 72.8388 257.099 78.3017C257.314 79.2658 257.421 80.1227 257.742 81.0868C258.706 85.1572 260.099 89.7632 262.349 93.298C265.884 98.6538 271.776 96.1901 276.811 94.4763C286.773 91.1557 296.307 86.1212 303.056 77.7662C306.806 73.053 309.377 67.5901 311.733 62.0201C313.662 46.8096 304.449 32.6703 290.308 29.671C276.918 26.886 263.741 35.0268 258.599 48.3092C257.635 53.1295 256.885 57.7354 256.457 62.4486Z" fill="#F9B191"/>
<path d="M265.134 110.329C265.134 110.329 254.957 184.775 255.171 191.845C255.386 198.807 235.139 189.274 235.139 189.274L236.96 112.9C236.96 112.9 257.528 107.973 265.134 110.329Z" fill="white"/>
<path d="M313.126 175.456C315.483 165.387 318.911 155.64 321.268 145.571C322.875 138.501 324.696 129.932 323.732 122.219C317.197 119.006 304.342 113.115 300.164 113.757C300.164 113.757 285.273 190.56 285.916 197.629C286.559 204.699 308.52 201.593 308.52 201.593L314.197 178.777C313.233 178.027 312.805 176.956 313.126 175.456Z" fill="white"/>
<path opacity="0.13" d="M304.342 181.026C306.913 183.061 309.484 184.989 311.948 187.025L313.983 178.777C313.233 178.027 312.805 176.956 313.126 175.456C314.84 168.494 316.876 161.745 318.804 154.89C310.984 151.141 302.735 148.249 294.058 147.713C293.951 147.713 293.737 147.713 293.629 147.606C292.665 152.748 291.701 157.996 290.844 163.138C295.236 169.458 298.129 175.992 304.342 181.026Z" fill="#017CE6"/>
<path d="M236.96 112.9C236.96 112.9 187.897 154.033 191.967 160.246C195.931 166.566 201.609 168.922 211.571 165.066C221.534 161.21 248.53 139.465 248.53 139.465C248.53 139.465 248.637 113.115 236.96 112.9Z" fill="white"/>
<path d="M322.446 121.363C322.446 121.363 354.584 176.742 348.585 181.24C342.586 185.739 336.587 186.061 328.552 179.098C320.518 172.136 302.521 142.464 302.521 142.464C302.521 142.464 311.412 117.613 322.446 121.363Z" fill="white"/>
<g opacity="0.32">
<path opacity="0.32" d="M289.773 172.992L288.594 172.457L303.806 140.536C301.878 139.786 298.343 138.18 298.664 136.359C298.771 135.609 299.95 134.109 302.842 130.253C305.627 126.611 312.162 118.149 311.305 116.864C308.413 115.471 299.95 114.4 299.843 114.4L299.95 113.115C300.271 113.115 308.734 114.186 311.841 115.685C312.162 115.9 312.483 116.221 312.591 116.542C313.126 118.685 309.055 124.04 303.806 130.896C301.985 133.252 299.95 135.93 299.843 136.466C299.736 137.109 302.092 138.501 304.77 139.465L305.413 139.679L289.773 172.992Z" fill="#017CE6"/>
</g>
<g opacity="0.32">
<path opacity="0.32" d="M256.993 167.851C256.136 165.923 250.137 135.073 251.851 132.931C252.065 132.717 252.279 132.61 252.6 132.61C253.457 132.717 256.243 130.574 258.6 128.325C256.457 125.004 248.958 113.222 249.601 110.758C249.708 110.329 249.922 110.115 250.137 110.008C252.279 108.937 263.956 109.58 265.241 109.687L265.134 110.972C260.421 110.651 252.386 110.544 250.779 111.186C250.565 112.686 255.279 121.041 259.885 128.111L260.206 128.539L259.885 128.861C258.707 130.039 254.957 133.681 252.815 133.895C252.172 137.216 256.885 164.209 258.171 167.315L256.993 167.851Z" fill="#017CE6"/>
</g>
<path d="M348.585 172.028C345.8 167.208 341.515 163.566 337.765 159.496L300.271 143.535L289.773 156.175C311.198 178.455 325.232 187.667 334.23 190.559C344.728 192.487 354.905 182.526 348.585 172.028Z" fill="white"/>
<path d="M285.809 155.211L285.381 154.676C284.738 154.033 284.738 152.962 285.488 152.319L316.019 123.398C316.662 122.755 317.733 122.755 318.376 123.505L318.804 124.04C319.447 124.683 319.447 125.754 318.697 126.397L288.166 155.318C287.523 155.961 286.452 155.961 285.809 155.211Z" fill="#017CE6"/>
<path d="M314.198 131.217L311.091 127.896C310.877 127.682 310.984 127.468 311.091 127.254L311.198 127.147C311.412 126.932 311.627 127.04 311.841 127.147L314.947 130.467C315.162 130.681 315.055 130.896 314.947 131.11L314.84 131.217C314.626 131.324 314.305 131.324 314.198 131.217Z" fill="#FFC329"/>
<path d="M303.271 137.109L303.164 137.001C303.056 136.894 303.056 136.573 303.164 136.466L313.019 127.147C313.126 127.04 313.448 127.04 313.555 127.147L313.662 127.254C313.769 127.361 313.769 127.682 313.662 127.789L303.806 137.109C303.592 137.216 303.378 137.216 303.271 137.109Z" fill="#FFC329"/>
<path d="M193.788 165.709C193.788 165.709 192.717 186.703 247.244 159.603L242.852 147.177L204.18 149.427C204.072 149.427 185.647 156.818 193.788 165.709Z" fill="white"/>
<path d="M299.723 136.94L257.731 129.564L247.686 186.745L289.679 194.12L299.723 136.94Z" fill="#0E2433"/>
<path d="M286.823 131.849L271.525 129.162L270.339 135.914L285.637 138.601L286.823 131.849Z" fill="#FFC329"/>
<path d="M243.495 149.427L244.137 148.998C244.459 148.891 244.78 148.784 244.78 148.784C244.78 148.034 245.316 145.356 251.101 141.179C258.064 136.252 258.064 135.93 259.028 137.109C259.885 138.073 254.207 143 253.993 144.714C254.743 144.5 255.386 144.178 256.028 144.071C259.242 142.893 271.99 138.501 272.204 139.786C272.526 141.179 271.454 142.464 259.242 145.892C259.349 146.106 259.456 146.428 259.671 146.642C265.027 144.821 274.882 141.5 275.097 142.571C275.418 144.071 274.24 145.464 260.849 149.32C260.956 149.534 261.063 149.855 261.17 150.07C266.098 148.356 274.133 145.892 274.24 146.856C274.561 148.249 273.49 149.534 262.134 152.747C262.242 153.069 262.349 153.283 262.349 153.604C266.955 152.105 273.383 150.07 273.49 150.927C273.704 152.212 272.847 153.39 262.349 156.282C261.277 157.032 253.136 158.425 248.422 159.067C244.03 157.139 243.28 153.497 243.495 149.427Z" fill="#F9B191"/>
<g opacity="0.42">
<path opacity="0.42" d="M244.887 148.142C244.78 148.142 241.245 147.606 235.568 147.606C235.568 147.499 235.46 147.392 235.353 147.392C234.925 147.07 234.603 146.642 234.603 145.999C234.175 142.464 240.067 135.288 242.424 132.824C242.638 132.61 242.638 132.181 242.424 131.86C242.209 131.646 241.781 131.646 241.459 131.86C241.138 132.288 232.782 141.286 233.318 146.106C233.425 146.642 233.532 147.177 233.853 147.606C227.212 147.713 218.32 148.57 209 151.569C208.679 151.676 208.465 151.998 208.572 152.426C208.679 152.64 208.893 152.855 209.107 152.855C209.215 152.855 209.322 152.855 209.429 152.855C227.747 146.963 244.566 149.427 244.78 149.534C245.102 149.641 245.423 149.32 245.53 148.998C245.53 148.463 245.316 148.142 244.887 148.142Z" fill="#017CE6"/>
<path opacity="0.42" d="M320.197 182.633C313.126 179.098 296.308 159.71 296.201 159.496C295.986 159.175 295.558 159.175 295.344 159.389C295.022 159.603 295.022 160.032 295.236 160.246C295.986 161.103 312.377 180.062 319.661 183.704C319.768 183.704 319.768 183.704 319.875 183.811C320.197 183.811 320.411 183.704 320.518 183.49C320.625 183.169 320.518 182.74 320.197 182.633Z" fill="#017CE6"/>
<path opacity="0.42" d="M341.622 166.994C334.016 160.031 299.307 148.142 297.915 147.606C297.593 147.499 297.165 147.713 297.058 148.034C296.951 148.356 297.165 148.784 297.486 148.891C297.808 148.998 333.373 161.317 340.765 168.065C340.872 168.172 340.979 168.172 341.086 168.172C341.301 168.172 341.515 168.172 341.729 167.958C341.943 167.637 341.943 167.208 341.622 166.994Z" fill="#017CE6"/>
</g>
<path d="M270.276 109.687C270.062 111.079 268.776 111.936 267.384 111.722C265.991 111.508 265.134 110.222 265.348 108.83C265.562 107.437 266.848 106.58 268.241 106.795C269.633 107.009 270.597 108.294 270.276 109.687Z" fill="white"/>
<path d="M273.276 116.007C273.061 117.399 271.776 118.256 270.383 118.042C268.991 117.828 268.134 116.542 268.348 115.15C268.562 113.757 269.848 112.9 271.24 113.114C272.633 113.329 273.597 114.614 273.276 116.007Z" fill="white"/>
<path d="M279.167 120.613C278.953 122.005 277.668 122.862 276.275 122.648C274.882 122.434 274.025 121.148 274.24 119.756C274.454 118.363 275.739 117.506 277.132 117.72C278.525 117.935 279.382 119.22 279.167 120.613Z" fill="white"/>
<path d="M286.238 122.112C286.024 123.505 284.738 124.362 283.345 124.148C281.953 123.933 281.096 122.648 281.31 121.255C281.524 119.863 282.81 119.006 284.202 119.22C285.595 119.434 286.452 120.72 286.238 122.112Z" fill="white"/>
<path d="M294.272 120.827C294.058 122.219 292.772 123.076 291.38 122.862C289.987 122.648 289.13 121.363 289.344 119.97C289.559 118.577 290.844 117.721 292.237 117.935C293.522 118.149 294.486 119.434 294.272 120.827Z" fill="white"/>
<path d="M301.45 116.221C301.235 117.613 299.95 118.47 298.557 118.256C297.165 118.042 296.308 116.757 296.522 115.364C296.736 113.972 298.022 113.115 299.414 113.329C300.807 113.543 301.664 114.936 301.45 116.221Z" fill="white"/>
<path d="M267.062 58.0569C265.563 61.8059 263.849 65.2337 262.028 68.7685L260.635 71.3393L260.314 71.982L260.206 72.3033C260.206 72.4104 260.099 72.5176 260.099 72.5176C260.099 72.5176 260.099 72.5176 260.099 72.6247C260.099 72.7318 260.206 72.7318 260.206 72.8389C260.314 72.946 260.528 73.1603 260.635 73.2674C261.385 73.8029 262.242 74.2314 263.099 74.5528C263.956 74.8741 264.92 74.9812 265.991 74.767C265.134 75.3026 264.063 75.3026 262.992 75.1955C261.92 75.0883 260.956 74.767 260.099 74.1243C259.885 74.0172 259.671 73.8029 259.457 73.5887C259.349 73.4816 259.242 73.2674 259.135 73.1603C259.028 72.946 258.921 72.8389 259.028 72.5176C259.028 72.1962 259.135 72.0891 259.135 71.982L259.242 71.6606L259.564 71.0179C259.992 70.161 260.421 69.197 260.956 68.34C262.67 64.6981 264.706 61.2704 267.062 58.0569Z" fill="#FF537C"/>
<path d="M260.742 83.6577C260.742 83.6577 260.206 80.0157 262.777 80.5513C265.348 81.0869 271.133 83.7648 272.204 83.7648C273.383 83.8719 260.742 83.6577 260.742 83.6577Z" fill="#FF537C"/>
<path opacity="0.61" d="M261.492 83.979C261.492 83.979 262.563 90.5131 271.99 83.8719C271.99 83.7648 261.92 81.9438 261.492 83.979Z" fill="#FF537C"/>
<path d="M286.131 48.4163C285.381 48.5234 270.49 20.7804 257.85 53.665C245.209 86.5496 254.743 92.1197 254.85 92.8695C254.957 93.6193 238.781 80.0156 252.493 50.7729C266.205 21.4231 287.202 21.2088 304.449 35.4553C304.556 35.5624 301.878 45.0957 286.131 48.4163Z" fill="#0E2433"/>
<path d="M286.131 48.4165C286.131 48.4165 290.308 57.7356 289.451 63.1985C288.487 68.6614 283.452 75.3026 284.845 79.6944C284.845 79.6944 286.452 77.5521 289.13 74.8742C291.808 72.1963 294.058 67.6974 293.951 65.2337C293.844 62.77 296.415 59.5566 298.236 62.77C300.057 65.9835 301.985 73.4817 293.415 76.588C293.415 76.588 293.629 94.9049 291.701 97.4757C289.773 100.046 314.412 91.9056 314.412 91.9056C314.412 91.9056 332.623 61.9131 302.842 33.9558C302.842 34.0629 285.381 43.1678 286.131 48.4165Z" fill="#0E2433"/>
<path d="M286.88 49.4875C286.88 49.4875 282.167 19.6022 266.419 26.886C250.779 34.1699 243.173 63.0913 245.101 71.9819C245.101 71.9819 254.207 36.7407 268.455 37.8119C282.703 38.7759 285.809 45.9527 286.88 49.4875Z" fill="#0E2433"/>
<path opacity="0.5" d="M293.737 66.9475C293.737 66.9475 295.772 62.8771 297.486 65.2337C299.2 67.5902 296.415 73.1603 292.987 73.1603C289.559 73.1603 293.737 66.9475 293.737 66.9475Z" fill="#F9B191"/>
<path d="M272.954 55.5931C272.954 55.5931 281.524 54.0935 287.845 57.307C287.845 57.307 278.525 55.9145 272.74 56.8785C272.74 56.8785 271.454 55.3789 272.954 55.5931Z" fill="#0E2433"/>
<path d="M262.135 54.0934C262.135 54.0934 254.636 52.0582 249.28 55.4859C249.28 55.4859 257.314 54.3076 262.349 55.593C262.349 55.593 263.42 53.8792 262.135 54.0934Z" fill="#0E2433"/>
<path d="M296.522 77.6592C296.307 79.0517 295.022 79.9086 293.629 79.6944C292.237 79.4802 291.38 78.1948 291.594 76.8023C291.808 75.4098 293.094 74.5528 294.486 74.7671C295.879 74.9813 296.736 76.3738 296.522 77.6592Z" fill="white"/>
<path d="M271.347 66.3047C271.347 66.3047 276.596 59.0208 282.81 64.698C282.81 64.698 276.596 73.3744 271.347 66.3047Z" fill="white"/>
<path d="M271.026 66.3047C271.026 66.3047 276.918 60.9489 282.488 64.6979C284.095 66.9474 279.06 55.2717 271.026 66.3047Z" fill="#0E2433"/>
<path d="M272.847 70.5893C274.326 70.5893 275.525 68.8628 275.525 66.7331C275.525 64.6034 274.326 62.877 272.847 62.877C271.368 62.877 270.169 64.6034 270.169 66.7331C270.169 68.8628 271.368 70.5893 272.847 70.5893Z" fill="#0E2433"/>
<path d="M255.921 66.4119C257.421 66.6261 259.028 66.3048 260.849 64.5909C260.849 64.5909 259.135 60.7347 255.6 59.6636C255.6 61.913 255.707 64.1625 255.921 66.4119Z" fill="white"/>
<path d="M255.814 58.5925C255.707 59.2352 255.707 59.8779 255.707 60.5206C259.028 61.5918 261.17 64.591 261.17 64.591C259.349 60.842 257.528 59.1281 255.814 58.5925Z" fill="#0E2433"/>
<path d="M252.815 64.0553C253.029 66.1977 254.529 67.8044 255.921 67.5902C257.421 67.3759 258.385 65.555 258.171 63.4126C257.957 61.2703 256.457 59.6636 255.064 59.8778C253.565 59.9849 252.6 61.913 252.815 64.0553Z" fill="#0E2433"/>
</svg>
