<svg width="350" height="224" viewBox="0 0 350 224" fill="none" xmlns="http://www.w3.org/2000/svg">
<path d="M0 4.99999C0 2.23857 2.23858 0 5 0H345C347.761 0 350 2.23858 350 5V218.355C350 221.117 347.761 223.355 345 223.355H4.99999C2.23857 223.355 0 221.117 0 218.355V4.99999Z" fill="#FF83A1"/>
<mask id="mask0_279_6315" style="mask-type:alpha" maskUnits="userSpaceOnUse" x="0" y="0" width="350" height="224">
<rect width="350" height="223.355" rx="5" fill="#FF83A1"/>
</mask>
<g mask="url(#mask0_279_6315)">
<path d="M350 25.3291C307.853 153.587 91.5515 192.522 -1.88753 195.958H-13.8159V239.474H350V25.3291Z" fill="#F66A8C"/>
</g>
<circle cx="286.677" cy="44.9035" r="17.2697" fill="#2DD3E3"/>
<circle cx="305.098" cy="44.9021" r="17.2697" fill="#FEE89E"/>
<path d="M32.8813 105.988L34.2876 103.673H35.5532L33.479 106.808L35.6177 110.013H34.3638L32.8989 107.64L31.4341 110.013H30.1743L32.313 106.808L30.2388 103.673H31.4927L32.8813 105.988ZM38.8345 105.988L40.2407 103.673H41.5063L39.4321 106.808L41.5708 110.013H40.3169L38.8521 107.64L37.3872 110.013H36.1274L38.2661 106.808L36.1919 103.673H37.4458L38.8345 105.988ZM44.7876 105.988L46.1938 103.673H47.4595L45.3853 106.808L47.5239 110.013H46.27L44.8052 107.64L43.3403 110.013H42.0806L44.2192 106.808L42.145 103.673H43.3989L44.7876 105.988ZM50.7407 105.988L52.147 103.673H53.4126L51.3384 106.808L53.4771 110.013H52.2231L50.7583 107.64L49.2935 110.013H48.0337L50.1724 106.808L48.0981 103.673H49.3521L50.7407 105.988ZM59.6704 105.988L61.0767 103.673H62.3423L60.2681 106.808L62.4067 110.013H61.1528L59.688 107.64L58.2231 110.013H56.9634L59.1021 106.808L57.0278 103.673H58.2817L59.6704 105.988ZM65.6235 105.988L67.0298 103.673H68.2954L66.2212 106.808L68.3599 110.013H67.106L65.6411 107.64L64.1763 110.013H62.9165L65.0552 106.808L62.981 103.673H64.2349L65.6235 105.988ZM71.5767 105.988L72.9829 103.673H74.2485L72.1743 106.808L74.313 110.013H73.0591L71.5942 107.64L70.1294 110.013H68.8696L71.0083 106.808L68.9341 103.673H70.188L71.5767 105.988ZM77.5298 105.988L78.936 103.673H80.2017L78.1274 106.808L80.2661 110.013H79.0122L77.5474 107.64L76.0825 110.013H74.8228L76.9614 106.808L74.8872 103.673H76.1411L77.5298 105.988ZM86.4595 105.988L87.8657 103.673H89.1313L87.0571 106.808L89.1958 110.013H87.9419L86.4771 107.64L85.0122 110.013H83.7524L85.8911 106.808L83.8169 103.673H85.0708L86.4595 105.988ZM92.4126 105.988L93.8188 103.673H95.0845L93.0103 106.808L95.1489 110.013H93.895L92.4302 107.64L90.9653 110.013H89.7056L91.8442 106.808L89.77 103.673H91.0239L92.4126 105.988ZM98.3657 105.988L99.772 103.673H101.038L98.9634 106.808L101.102 110.013H99.8481L98.3833 107.64L96.9185 110.013H95.6587L97.7974 106.808L95.7231 103.673H96.9771L98.3657 105.988ZM104.319 105.988L105.725 103.673H106.991L104.917 106.808L107.055 110.013H105.801L104.336 107.64L102.872 110.013H101.612L103.75 106.808L101.676 103.673H102.93L104.319 105.988ZM111.508 105.736L111.942 101.482H116.313V102.484H112.862L112.604 104.81C113.022 104.564 113.497 104.441 114.028 104.441C114.805 104.441 115.422 104.699 115.879 105.214C116.336 105.726 116.565 106.419 116.565 107.294C116.565 108.173 116.327 108.867 115.85 109.375C115.377 109.878 114.715 110.13 113.864 110.13C113.11 110.13 112.495 109.921 112.018 109.503C111.542 109.085 111.27 108.507 111.204 107.769H112.229C112.295 108.257 112.469 108.626 112.75 108.876C113.032 109.123 113.403 109.246 113.864 109.246C114.368 109.246 114.762 109.074 115.047 108.73C115.336 108.386 115.481 107.912 115.481 107.306C115.481 106.736 115.325 106.279 115.012 105.935C114.704 105.587 114.292 105.414 113.776 105.414C113.303 105.414 112.932 105.517 112.663 105.724L112.375 105.958L111.508 105.736ZM122.002 101.476V102.396H121.803C120.959 102.412 120.288 102.662 119.788 103.146C119.288 103.63 118.999 104.312 118.92 105.191C119.37 104.675 119.983 104.417 120.76 104.417C121.502 104.417 122.094 104.679 122.536 105.203C122.981 105.726 123.204 106.402 123.204 107.23C123.204 108.109 122.963 108.812 122.483 109.339C122.006 109.867 121.366 110.13 120.561 110.13C119.745 110.13 119.083 109.818 118.575 109.193C118.067 108.564 117.813 107.755 117.813 106.767V106.351C117.813 104.781 118.147 103.582 118.815 102.753C119.487 101.921 120.485 101.496 121.809 101.476H122.002ZM120.579 105.32C120.208 105.32 119.866 105.431 119.553 105.654C119.241 105.876 119.024 106.156 118.903 106.492V106.89C118.903 107.593 119.061 108.16 119.377 108.589C119.694 109.019 120.088 109.234 120.561 109.234C121.049 109.234 121.432 109.054 121.709 108.695C121.991 108.335 122.131 107.865 122.131 107.283C122.131 106.697 121.989 106.224 121.704 105.865C121.422 105.501 121.047 105.32 120.579 105.32ZM129.661 103.708C129.661 104.134 129.547 104.513 129.321 104.845C129.098 105.177 128.795 105.437 128.413 105.625C128.858 105.816 129.209 106.095 129.467 106.462C129.729 106.83 129.86 107.246 129.86 107.71C129.86 108.449 129.61 109.037 129.11 109.474C128.614 109.912 127.959 110.13 127.147 110.13C126.327 110.13 125.668 109.912 125.172 109.474C124.68 109.033 124.434 108.445 124.434 107.71C124.434 107.25 124.559 106.833 124.809 106.462C125.063 106.091 125.413 105.81 125.858 105.619C125.479 105.431 125.18 105.171 124.961 104.839C124.743 104.507 124.633 104.13 124.633 103.708C124.633 102.99 124.864 102.419 125.325 101.998C125.786 101.576 126.393 101.365 127.147 101.365C127.897 101.365 128.502 101.576 128.963 101.998C129.428 102.419 129.661 102.99 129.661 103.708ZM128.776 107.687C128.776 107.21 128.624 106.822 128.319 106.521C128.018 106.22 127.624 106.07 127.135 106.07C126.647 106.07 126.254 106.218 125.958 106.515C125.665 106.812 125.518 107.203 125.518 107.687C125.518 108.171 125.661 108.552 125.946 108.83C126.235 109.107 126.635 109.246 127.147 109.246C127.655 109.246 128.053 109.107 128.342 108.83C128.631 108.548 128.776 108.167 128.776 107.687ZM127.147 102.255C126.721 102.255 126.375 102.388 126.11 102.654C125.848 102.916 125.717 103.273 125.717 103.726C125.717 104.16 125.846 104.511 126.104 104.781C126.366 105.046 126.713 105.179 127.147 105.179C127.581 105.179 127.926 105.046 128.184 104.781C128.446 104.511 128.577 104.16 128.577 103.726C128.577 103.292 128.442 102.939 128.172 102.666C127.903 102.392 127.561 102.255 127.147 102.255ZM135.379 106.263C135.153 106.533 134.881 106.75 134.565 106.914C134.252 107.078 133.909 107.16 133.534 107.16C133.042 107.16 132.612 107.039 132.245 106.796C131.881 106.554 131.6 106.214 131.401 105.777C131.202 105.335 131.102 104.849 131.102 104.318C131.102 103.748 131.209 103.234 131.424 102.777C131.643 102.32 131.952 101.97 132.35 101.728C132.749 101.486 133.213 101.365 133.745 101.365C134.588 101.365 135.252 101.681 135.737 102.314C136.225 102.943 136.469 103.802 136.469 104.892V105.208C136.469 106.869 136.141 108.082 135.485 108.847C134.829 109.609 133.838 110 132.514 110.019H132.303V109.105H132.532C133.426 109.089 134.114 108.857 134.594 108.408C135.075 107.955 135.336 107.24 135.379 106.263ZM133.709 106.263C134.073 106.263 134.407 106.152 134.711 105.929C135.02 105.707 135.245 105.431 135.385 105.103V104.669C135.385 103.958 135.231 103.38 134.922 102.935C134.614 102.49 134.223 102.267 133.75 102.267C133.274 102.267 132.891 102.451 132.602 102.818C132.313 103.181 132.168 103.662 132.168 104.259C132.168 104.841 132.307 105.322 132.584 105.701C132.866 106.076 133.241 106.263 133.709 106.263Z" fill="white"/>
<path d="M33.4937 66.5659H32.5854V60.5454L30.7642 61.2144V60.394L33.3521 59.4224H33.4937V66.5659ZM40.5981 63.5337C40.5981 64.5916 40.4175 65.3778 40.0562 65.8921C39.6948 66.4064 39.13 66.6636 38.3618 66.6636C37.6034 66.6636 37.0418 66.4129 36.6772 65.9116C36.3127 65.4071 36.1239 64.6551 36.1108 63.6558V62.4497C36.1108 61.4048 36.2915 60.6284 36.6528 60.1206C37.0142 59.6128 37.5806 59.3589 38.3521 59.3589C39.117 59.3589 39.6802 59.6047 40.0415 60.0962C40.4028 60.5845 40.5884 61.3397 40.5981 62.3618V63.5337ZM39.6948 62.2983C39.6948 61.5334 39.5874 60.9767 39.3726 60.6284C39.1577 60.2769 38.8175 60.1011 38.3521 60.1011C37.8898 60.1011 37.5529 60.2752 37.3413 60.6235C37.1297 60.9718 37.0207 61.5073 37.0142 62.23V63.6753C37.0142 64.4435 37.1248 65.0116 37.3462 65.3794C37.5708 65.744 37.9093 65.9263 38.3618 65.9263C38.8078 65.9263 39.1382 65.7537 39.353 65.4087C39.5711 65.0636 39.6851 64.52 39.6948 63.7778V62.2983ZM42.0288 67.1763H41.2524L44.2212 59.4565H44.9927L42.0288 67.1763ZM50.5347 66.5659H45.8765V65.9165L48.3374 63.1821C48.702 62.7687 48.9526 62.4334 49.0894 62.1763C49.2293 61.9159 49.2993 61.6473 49.2993 61.3706C49.2993 60.9995 49.187 60.6951 48.9624 60.4575C48.7378 60.2199 48.4383 60.1011 48.064 60.1011C47.6147 60.1011 47.2648 60.2297 47.0142 60.4868C46.7668 60.7407 46.6431 61.0955 46.6431 61.5513H45.7397C45.7397 60.897 45.9497 60.368 46.3696 59.9644C46.7928 59.5607 47.3576 59.3589 48.064 59.3589C48.7248 59.3589 49.2472 59.533 49.6313 59.8813C50.0155 60.2264 50.2075 60.687 50.2075 61.2632C50.2075 61.9631 49.7616 62.7964 48.8696 63.7632L46.9653 65.8286H50.5347V66.5659ZM55.9497 63.5337C55.9497 64.5916 55.769 65.3778 55.4077 65.8921C55.0464 66.4064 54.4816 66.6636 53.7134 66.6636C52.9549 66.6636 52.3934 66.4129 52.0288 65.9116C51.6642 65.4071 51.4754 64.6551 51.4624 63.6558V62.4497C51.4624 61.4048 51.6431 60.6284 52.0044 60.1206C52.3657 59.6128 52.9321 59.3589 53.7036 59.3589C54.4686 59.3589 55.0317 59.6047 55.3931 60.0962C55.7544 60.5845 55.9399 61.3397 55.9497 62.3618V63.5337ZM55.0464 62.2983C55.0464 61.5334 54.939 60.9767 54.7241 60.6284C54.5093 60.2769 54.1691 60.1011 53.7036 60.1011C53.2414 60.1011 52.9045 60.2752 52.6929 60.6235C52.4813 60.9718 52.3722 61.5073 52.3657 62.23V63.6753C52.3657 64.4435 52.4764 65.0116 52.6978 65.3794C52.9224 65.744 53.2609 65.9263 53.7134 65.9263C54.1593 65.9263 54.4897 65.7537 54.7046 65.4087C54.9227 65.0636 55.0366 64.52 55.0464 63.7778V62.2983ZM61.7651 66.5659H57.1069V65.9165L59.5679 63.1821C59.9325 62.7687 60.1831 62.4334 60.3198 62.1763C60.4598 61.9159 60.5298 61.6473 60.5298 61.3706C60.5298 60.9995 60.4175 60.6951 60.1929 60.4575C59.9683 60.2199 59.6688 60.1011 59.2944 60.1011C58.8452 60.1011 58.4953 60.2297 58.2446 60.4868C57.9972 60.7407 57.8735 61.0955 57.8735 61.5513H56.9702C56.9702 60.897 57.1802 60.368 57.6001 59.9644C58.0233 59.5607 58.5881 59.3589 59.2944 59.3589C59.9552 59.3589 60.4777 59.533 60.8618 59.8813C61.2459 60.2264 61.438 60.687 61.438 61.2632C61.438 61.9631 60.992 62.7964 60.1001 63.7632L58.1958 65.8286H61.7651V66.5659ZM63.1372 63.0015L63.4985 59.4565H67.1411V60.2915H64.2651L64.0503 62.23C64.3986 62.0249 64.7941 61.9224 65.2368 61.9224C65.8846 61.9224 66.3989 62.1372 66.7798 62.5669C67.1606 62.9933 67.3511 63.5711 67.3511 64.3003C67.3511 65.0327 67.1525 65.6105 66.7554 66.0337C66.3615 66.4536 65.8097 66.6636 65.1001 66.6636C64.4718 66.6636 63.9591 66.4894 63.562 66.1411C63.1649 65.7928 62.9386 65.311 62.8833 64.6958H63.7378C63.7931 65.1027 63.938 65.4103 64.1724 65.6187C64.4067 65.8237 64.716 65.9263 65.1001 65.9263C65.52 65.9263 65.8488 65.783 66.0864 65.4966C66.3273 65.2101 66.4478 64.8146 66.4478 64.3101C66.4478 63.8348 66.3175 63.4539 66.0571 63.1675C65.8 62.8778 65.4565 62.7329 65.0269 62.7329C64.633 62.7329 64.3237 62.8192 64.0991 62.9917L63.8599 63.187L63.1372 63.0015Z" fill="white"/>
<path d="M31.6968 153.585V156.369H30.7593V149.259H33.3813C34.1593 149.259 34.7681 149.458 35.2075 149.855C35.6502 150.252 35.8716 150.778 35.8716 151.432C35.8716 152.122 35.6551 152.654 35.2222 153.029C34.7925 153.4 34.1756 153.585 33.3716 153.585H31.6968ZM31.6968 152.819H33.3813C33.8826 152.819 34.2668 152.702 34.5337 152.467C34.8006 152.23 34.9341 151.888 34.9341 151.442C34.9341 151.019 34.8006 150.68 34.5337 150.426C34.2668 150.172 33.9006 150.041 33.4351 150.031H31.6968V152.819ZM37.8296 151.725C38.23 151.234 38.7508 150.988 39.3921 150.988C40.5086 150.988 41.0718 151.618 41.0815 152.877V156.369H40.1782V152.873C40.175 152.492 40.0871 152.21 39.9146 152.028C39.7453 151.846 39.48 151.754 39.1187 151.754C38.8257 151.754 38.5685 151.833 38.3472 151.989C38.1258 152.145 37.9533 152.35 37.8296 152.604V156.369H36.9263V148.869H37.8296V151.725ZM43.4155 156.369H42.5122V151.085H43.4155V156.369ZM42.439 149.684C42.439 149.538 42.4829 149.414 42.5708 149.313C42.6619 149.212 42.7954 149.162 42.9712 149.162C43.147 149.162 43.2804 149.212 43.3716 149.313C43.4627 149.414 43.5083 149.538 43.5083 149.684C43.5083 149.831 43.4627 149.953 43.3716 150.05C43.2804 150.148 43.147 150.197 42.9712 150.197C42.7954 150.197 42.6619 150.148 42.5708 150.05C42.4829 149.953 42.439 149.831 42.439 149.684ZM45.8472 156.369H44.9438V148.869H45.8472V156.369ZM48.2788 156.369H47.3755V148.869H48.2788V156.369ZM50.7104 156.369H49.8071V151.085H50.7104V156.369ZM49.7339 149.684C49.7339 149.538 49.7778 149.414 49.8657 149.313C49.9569 149.212 50.0903 149.162 50.2661 149.162C50.4419 149.162 50.5754 149.212 50.6665 149.313C50.7576 149.414 50.8032 149.538 50.8032 149.684C50.8032 149.831 50.7576 149.953 50.6665 150.05C50.5754 150.148 50.4419 150.197 50.2661 150.197C50.0903 150.197 49.9569 150.148 49.8657 150.05C49.7778 149.953 49.7339 149.831 49.7339 149.684ZM56.6235 153.786C56.6235 154.59 56.4396 155.237 56.0718 155.729C55.7039 156.221 55.2059 156.466 54.5776 156.466C53.9364 156.466 53.4318 156.263 53.064 155.856V158.4H52.1606V151.085H52.9858L53.0298 151.671C53.3976 151.216 53.9087 150.988 54.563 150.988C55.1978 150.988 55.6991 151.227 56.0669 151.706C56.438 152.184 56.6235 152.85 56.6235 153.703V153.786ZM55.7202 153.683C55.7202 153.087 55.5933 152.617 55.3394 152.272C55.0854 151.927 54.7371 151.754 54.2944 151.754C53.7476 151.754 53.3374 151.997 53.064 152.482V155.006C53.3341 155.488 53.7476 155.729 54.3042 155.729C54.7371 155.729 55.0806 155.558 55.3345 155.216C55.5916 154.871 55.7202 154.36 55.7202 153.683ZM62.4927 153.2C61.6886 152.969 61.1027 152.685 60.7349 152.35C60.3703 152.012 60.188 151.595 60.188 151.1C60.188 150.54 60.411 150.078 60.8569 149.713C61.3062 149.346 61.8888 149.162 62.605 149.162C63.0933 149.162 63.5278 149.256 63.9087 149.445C64.2928 149.634 64.589 149.894 64.7974 150.226C65.009 150.558 65.1147 150.921 65.1147 151.315H64.1724C64.1724 150.885 64.0356 150.548 63.7622 150.304C63.4888 150.057 63.103 149.933 62.605 149.933C62.1427 149.933 61.7814 150.036 61.521 150.241C61.2638 150.443 61.1353 150.724 61.1353 151.085C61.1353 151.375 61.2573 151.621 61.5015 151.823C61.7489 152.021 62.1672 152.204 62.7563 152.37C63.3488 152.536 63.811 152.72 64.1431 152.921C64.4784 153.12 64.7257 153.353 64.8853 153.62C65.048 153.887 65.1294 154.201 65.1294 154.562C65.1294 155.138 64.9048 155.6 64.4556 155.949C64.0063 156.294 63.4058 156.466 62.6538 156.466C62.1655 156.466 61.7098 156.374 61.2866 156.188C60.8634 155.999 60.5363 155.742 60.3052 155.417C60.0773 155.091 59.9634 154.722 59.9634 154.308H60.9058C60.9058 154.738 61.0636 155.078 61.3794 155.329C61.6984 155.576 62.1232 155.7 62.6538 155.7C63.1486 155.7 63.5278 155.599 63.7915 155.397C64.0552 155.195 64.187 154.92 64.187 154.572C64.187 154.223 64.0649 153.955 63.8208 153.766C63.5767 153.574 63.134 153.385 62.4927 153.2ZM67.0435 151.085L67.0679 151.671C67.4552 151.216 67.9777 150.988 68.6353 150.988C69.3742 150.988 69.8771 151.271 70.144 151.837C70.3198 151.583 70.5477 151.378 70.8276 151.222C71.1108 151.066 71.4445 150.988 71.8286 150.988C72.9875 150.988 73.5767 151.601 73.5962 152.829V156.369H72.6929V152.882C72.6929 152.505 72.6066 152.223 72.4341 152.038C72.2616 151.849 71.9718 151.754 71.5649 151.754C71.2297 151.754 70.9513 151.855 70.73 152.057C70.5086 152.256 70.38 152.524 70.3442 152.863V156.369H69.436V152.907C69.436 152.139 69.0601 151.754 68.3081 151.754C67.7157 151.754 67.3104 152.007 67.0923 152.511V156.369H66.189V151.085H67.0435ZM75.9448 156.369H75.0415V151.085H75.9448V156.369ZM74.9683 149.684C74.9683 149.538 75.0122 149.414 75.1001 149.313C75.1912 149.212 75.3247 149.162 75.5005 149.162C75.6763 149.162 75.8097 149.212 75.9009 149.313C75.992 149.414 76.0376 149.538 76.0376 149.684C76.0376 149.831 75.992 149.953 75.9009 150.05C75.8097 150.148 75.6763 150.197 75.5005 150.197C75.3247 150.197 75.1912 150.148 75.1001 150.05C75.0122 149.953 74.9683 149.831 74.9683 149.684ZM78.6206 149.806V151.085H79.6069V151.784H78.6206V155.06C78.6206 155.272 78.6646 155.431 78.7524 155.539C78.8403 155.643 78.9901 155.695 79.2017 155.695C79.3058 155.695 79.4491 155.675 79.6313 155.636V156.369C79.3937 156.434 79.1626 156.466 78.938 156.466C78.5343 156.466 78.23 156.344 78.0249 156.1C77.8198 155.856 77.7173 155.509 77.7173 155.06V151.784H76.7554V151.085H77.7173V149.806H78.6206ZM81.5698 151.725C81.9702 151.234 82.491 150.988 83.1323 150.988C84.2489 150.988 84.812 151.618 84.8218 152.877V156.369H83.9185V152.873C83.9152 152.492 83.8273 152.21 83.6548 152.028C83.4855 151.846 83.2202 151.754 82.8589 151.754C82.5659 151.754 82.3088 151.833 82.0874 151.989C81.866 152.145 81.6935 152.35 81.5698 152.604V156.369H80.6665V148.869H81.5698V151.725Z" fill="white"/>
</svg>
