<svg width="350" height="224" viewBox="0 0 350 224" fill="none" xmlns="http://www.w3.org/2000/svg">
<path d="M0 4.99999C0 2.23857 2.23858 0 5 0H345C347.761 0 350 2.23858 350 5V218.355C350 221.117 347.761 223.355 345 223.355H4.99999C2.23857 223.355 0 221.117 0 218.355V4.99999Z" fill="#FFD260"/>
<mask id="mask0_279_6344" style="mask-type:alpha" maskUnits="userSpaceOnUse" x="0" y="0" width="350" height="224">
<rect width="350" height="223.355" rx="5" fill="#39B8FF"/>
</mask>
<g mask="url(#mask0_279_6344)">
<path d="M350 25.3291C307.853 153.587 65.6249 8.05937 -1.88753 195.958H-13.8159V239.474H350V25.3291Z" fill="#FFBD12"/>
</g>
<circle cx="286.678" cy="44.903" r="17.2697" fill="#2DD3E3"/>
<circle cx="305.099" cy="44.9016" r="17.2697" fill="#FEE89E"/>
<path d="M32.8813 105.988L34.2876 103.673H35.5532L33.479 106.808L35.6177 110.013H34.3638L32.8989 107.64L31.4341 110.013H30.1743L32.313 106.808L30.2388 103.673H31.4927L32.8813 105.988ZM38.8345 105.988L40.2407 103.673H41.5063L39.4321 106.808L41.5708 110.013H40.3169L38.8521 107.64L37.3872 110.013H36.1274L38.2661 106.808L36.1919 103.673H37.4458L38.8345 105.988ZM44.7876 105.988L46.1938 103.673H47.4595L45.3853 106.808L47.5239 110.013H46.27L44.8052 107.64L43.3403 110.013H42.0806L44.2192 106.808L42.145 103.673H43.3989L44.7876 105.988ZM50.7407 105.988L52.147 103.673H53.4126L51.3384 106.808L53.4771 110.013H52.2231L50.7583 107.64L49.2935 110.013H48.0337L50.1724 106.808L48.0981 103.673H49.3521L50.7407 105.988ZM59.6704 105.988L61.0767 103.673H62.3423L60.2681 106.808L62.4067 110.013H61.1528L59.688 107.64L58.2231 110.013H56.9634L59.1021 106.808L57.0278 103.673H58.2817L59.6704 105.988ZM65.6235 105.988L67.0298 103.673H68.2954L66.2212 106.808L68.3599 110.013H67.106L65.6411 107.64L64.1763 110.013H62.9165L65.0552 106.808L62.981 103.673H64.2349L65.6235 105.988ZM71.5767 105.988L72.9829 103.673H74.2485L72.1743 106.808L74.313 110.013H73.0591L71.5942 107.64L70.1294 110.013H68.8696L71.0083 106.808L68.9341 103.673H70.188L71.5767 105.988ZM77.5298 105.988L78.936 103.673H80.2017L78.1274 106.808L80.2661 110.013H79.0122L77.5474 107.64L76.0825 110.013H74.8228L76.9614 106.808L74.8872 103.673H76.1411L77.5298 105.988ZM86.4595 105.988L87.8657 103.673H89.1313L87.0571 106.808L89.1958 110.013H87.9419L86.4771 107.64L85.0122 110.013H83.7524L85.8911 106.808L83.8169 103.673H85.0708L86.4595 105.988ZM92.4126 105.988L93.8188 103.673H95.0845L93.0103 106.808L95.1489 110.013H93.895L92.4302 107.64L90.9653 110.013H89.7056L91.8442 106.808L89.77 103.673H91.0239L92.4126 105.988ZM98.3657 105.988L99.772 103.673H101.038L98.9634 106.808L101.102 110.013H99.8481L98.3833 107.64L96.9185 110.013H95.6587L97.7974 106.808L95.7231 103.673H96.9771L98.3657 105.988ZM104.319 105.988L105.725 103.673H106.991L104.917 106.808L107.055 110.013H105.801L104.336 107.64L102.872 110.013H101.612L103.75 106.808L101.676 103.673H102.93L104.319 105.988ZM114.573 110.013H113.483V102.789L111.297 103.591V102.607L114.403 101.441H114.573V110.013ZM121.903 106.263C121.676 106.533 121.405 106.75 121.088 106.914C120.776 107.078 120.432 107.16 120.057 107.16C119.565 107.16 119.135 107.039 118.768 106.796C118.405 106.554 118.124 106.214 117.924 105.777C117.725 105.335 117.625 104.849 117.625 104.318C117.625 103.748 117.733 103.234 117.948 102.777C118.167 102.32 118.475 101.97 118.874 101.728C119.272 101.486 119.737 101.365 120.268 101.365C121.112 101.365 121.776 101.681 122.26 102.314C122.749 102.943 122.993 103.802 122.993 104.892V105.208C122.993 106.869 122.665 108.082 122.008 108.847C121.352 109.609 120.362 110 119.038 110.019H118.827V109.105H119.055C119.95 109.089 120.637 108.857 121.118 108.408C121.598 107.955 121.86 107.24 121.903 106.263ZM120.233 106.263C120.596 106.263 120.93 106.152 121.235 105.929C121.543 105.707 121.768 105.431 121.909 105.103V104.669C121.909 103.958 121.754 103.38 121.446 102.935C121.137 102.49 120.747 102.267 120.274 102.267C119.797 102.267 119.415 102.451 119.125 102.818C118.836 103.181 118.692 103.662 118.692 104.259C118.692 104.841 118.831 105.322 119.108 105.701C119.389 106.076 119.764 106.263 120.233 106.263ZM129.661 103.708C129.661 104.134 129.547 104.513 129.321 104.845C129.098 105.177 128.795 105.437 128.413 105.625C128.858 105.816 129.209 106.095 129.467 106.462C129.729 106.83 129.86 107.246 129.86 107.71C129.86 108.449 129.61 109.037 129.11 109.474C128.614 109.912 127.959 110.13 127.147 110.13C126.327 110.13 125.668 109.912 125.172 109.474C124.68 109.033 124.434 108.445 124.434 107.71C124.434 107.25 124.559 106.833 124.809 106.462C125.063 106.091 125.413 105.81 125.858 105.619C125.479 105.431 125.18 105.171 124.961 104.839C124.743 104.507 124.633 104.13 124.633 103.708C124.633 102.99 124.864 102.419 125.325 101.998C125.786 101.576 126.393 101.365 127.147 101.365C127.897 101.365 128.502 101.576 128.963 101.998C129.428 102.419 129.661 102.99 129.661 103.708ZM128.776 107.687C128.776 107.21 128.624 106.822 128.319 106.521C128.018 106.22 127.624 106.07 127.135 106.07C126.647 106.07 126.254 106.218 125.958 106.515C125.665 106.812 125.518 107.203 125.518 107.687C125.518 108.171 125.661 108.552 125.946 108.83C126.235 109.107 126.635 109.246 127.147 109.246C127.655 109.246 128.053 109.107 128.342 108.83C128.631 108.548 128.776 108.167 128.776 107.687ZM127.147 102.255C126.721 102.255 126.375 102.388 126.11 102.654C125.848 102.916 125.717 103.273 125.717 103.726C125.717 104.16 125.846 104.511 126.104 104.781C126.366 105.046 126.713 105.179 127.147 105.179C127.581 105.179 127.926 105.046 128.184 104.781C128.446 104.511 128.577 104.16 128.577 103.726C128.577 103.292 128.442 102.939 128.172 102.666C127.903 102.392 127.561 102.255 127.147 102.255ZM132.801 105.22H133.616C134.127 105.212 134.53 105.078 134.823 104.816C135.116 104.554 135.262 104.201 135.262 103.755C135.262 102.755 134.764 102.255 133.768 102.255C133.299 102.255 132.924 102.39 132.643 102.66C132.366 102.925 132.227 103.279 132.227 103.72H131.143C131.143 103.044 131.389 102.484 131.881 102.039C132.377 101.589 133.006 101.365 133.768 101.365C134.573 101.365 135.204 101.578 135.661 102.003C136.118 102.429 136.346 103.021 136.346 103.779C136.346 104.15 136.225 104.509 135.983 104.857C135.745 105.205 135.418 105.464 135.004 105.636C135.473 105.785 135.834 106.031 136.088 106.375C136.346 106.718 136.475 107.138 136.475 107.634C136.475 108.4 136.225 109.007 135.725 109.457C135.225 109.906 134.575 110.13 133.774 110.13C132.973 110.13 132.321 109.914 131.817 109.48C131.317 109.046 131.067 108.474 131.067 107.763H132.157C132.157 108.212 132.303 108.572 132.596 108.841C132.889 109.111 133.282 109.246 133.774 109.246C134.297 109.246 134.698 109.109 134.975 108.835C135.252 108.562 135.391 108.169 135.391 107.658C135.391 107.162 135.239 106.781 134.934 106.515C134.629 106.25 134.19 106.113 133.616 106.105H132.801V105.22Z" fill="white"/>
<path d="M33.4937 66.5659H32.5854V60.5454L30.7642 61.2144V60.394L33.3521 59.4224H33.4937V66.5659ZM40.5981 63.5337C40.5981 64.5916 40.4175 65.3778 40.0562 65.8921C39.6948 66.4064 39.13 66.6636 38.3618 66.6636C37.6034 66.6636 37.0418 66.4129 36.6772 65.9116C36.3127 65.4071 36.1239 64.6551 36.1108 63.6558V62.4497C36.1108 61.4048 36.2915 60.6284 36.6528 60.1206C37.0142 59.6128 37.5806 59.3589 38.3521 59.3589C39.117 59.3589 39.6802 59.6047 40.0415 60.0962C40.4028 60.5845 40.5884 61.3397 40.5981 62.3618V63.5337ZM39.6948 62.2983C39.6948 61.5334 39.5874 60.9767 39.3726 60.6284C39.1577 60.2769 38.8175 60.1011 38.3521 60.1011C37.8898 60.1011 37.5529 60.2752 37.3413 60.6235C37.1297 60.9718 37.0207 61.5073 37.0142 62.23V63.6753C37.0142 64.4435 37.1248 65.0116 37.3462 65.3794C37.5708 65.744 37.9093 65.9263 38.3618 65.9263C38.8078 65.9263 39.1382 65.7537 39.353 65.4087C39.5711 65.0636 39.6851 64.52 39.6948 63.7778V62.2983ZM42.0288 67.1763H41.2524L44.2212 59.4565H44.9927L42.0288 67.1763ZM50.5347 66.5659H45.8765V65.9165L48.3374 63.1821C48.702 62.7687 48.9526 62.4334 49.0894 62.1763C49.2293 61.9159 49.2993 61.6473 49.2993 61.3706C49.2993 60.9995 49.187 60.6951 48.9624 60.4575C48.7378 60.2199 48.4383 60.1011 48.064 60.1011C47.6147 60.1011 47.2648 60.2297 47.0142 60.4868C46.7668 60.7407 46.6431 61.0955 46.6431 61.5513H45.7397C45.7397 60.897 45.9497 60.368 46.3696 59.9644C46.7928 59.5607 47.3576 59.3589 48.064 59.3589C48.7248 59.3589 49.2472 59.533 49.6313 59.8813C50.0155 60.2264 50.2075 60.687 50.2075 61.2632C50.2075 61.9631 49.7616 62.7964 48.8696 63.7632L46.9653 65.8286H50.5347V66.5659ZM55.9497 63.5337C55.9497 64.5916 55.769 65.3778 55.4077 65.8921C55.0464 66.4064 54.4816 66.6636 53.7134 66.6636C52.9549 66.6636 52.3934 66.4129 52.0288 65.9116C51.6642 65.4071 51.4754 64.6551 51.4624 63.6558V62.4497C51.4624 61.4048 51.6431 60.6284 52.0044 60.1206C52.3657 59.6128 52.9321 59.3589 53.7036 59.3589C54.4686 59.3589 55.0317 59.6047 55.3931 60.0962C55.7544 60.5845 55.9399 61.3397 55.9497 62.3618V63.5337ZM55.0464 62.2983C55.0464 61.5334 54.939 60.9767 54.7241 60.6284C54.5093 60.2769 54.1691 60.1011 53.7036 60.1011C53.2414 60.1011 52.9045 60.2752 52.6929 60.6235C52.4813 60.9718 52.3722 61.5073 52.3657 62.23V63.6753C52.3657 64.4435 52.4764 65.0116 52.6978 65.3794C52.9224 65.744 53.2609 65.9263 53.7134 65.9263C54.1593 65.9263 54.4897 65.7537 54.7046 65.4087C54.9227 65.0636 55.0366 64.52 55.0464 63.7778V62.2983ZM61.7651 66.5659H57.1069V65.9165L59.5679 63.1821C59.9325 62.7687 60.1831 62.4334 60.3198 62.1763C60.4598 61.9159 60.5298 61.6473 60.5298 61.3706C60.5298 60.9995 60.4175 60.6951 60.1929 60.4575C59.9683 60.2199 59.6688 60.1011 59.2944 60.1011C58.8452 60.1011 58.4953 60.2297 58.2446 60.4868C57.9972 60.7407 57.8735 61.0955 57.8735 61.5513H56.9702C56.9702 60.897 57.1802 60.368 57.6001 59.9644C58.0233 59.5607 58.5881 59.3589 59.2944 59.3589C59.9552 59.3589 60.4777 59.533 60.8618 59.8813C61.2459 60.2264 61.438 60.687 61.438 61.2632C61.438 61.9631 60.992 62.7964 60.1001 63.7632L58.1958 65.8286H61.7651V66.5659ZM63.1372 63.0015L63.4985 59.4565H67.1411V60.2915H64.2651L64.0503 62.23C64.3986 62.0249 64.7941 61.9224 65.2368 61.9224C65.8846 61.9224 66.3989 62.1372 66.7798 62.5669C67.1606 62.9933 67.3511 63.5711 67.3511 64.3003C67.3511 65.0327 67.1525 65.6105 66.7554 66.0337C66.3615 66.4536 65.8097 66.6636 65.1001 66.6636C64.4718 66.6636 63.9591 66.4894 63.562 66.1411C63.1649 65.7928 62.9386 65.311 62.8833 64.6958H63.7378C63.7931 65.1027 63.938 65.4103 64.1724 65.6187C64.4067 65.8237 64.716 65.9263 65.1001 65.9263C65.52 65.9263 65.8488 65.783 66.0864 65.4966C66.3273 65.2101 66.4478 64.8146 66.4478 64.3101C66.4478 63.8348 66.3175 63.4539 66.0571 63.1675C65.8 62.8778 65.4565 62.7329 65.0269 62.7329C64.633 62.7329 64.3237 62.8192 64.0991 62.9917L63.8599 63.187L63.1372 63.0015Z" fill="white"/>
<path d="M36.2231 156.369H35.2808L31.7017 150.89V156.369H30.7593V149.259H31.7017L35.2905 154.762V149.259H36.2231V156.369ZM41.0083 156.369C40.9562 156.264 40.9139 156.079 40.8813 155.812C40.4614 156.248 39.9601 156.466 39.3774 156.466C38.8566 156.466 38.4285 156.32 38.0933 156.027C37.7612 155.731 37.5952 155.356 37.5952 154.904C37.5952 154.354 37.8035 153.927 38.2202 153.625C38.6401 153.319 39.2293 153.166 39.9878 153.166H40.8667V152.75C40.8667 152.435 40.7723 152.184 40.5835 151.999C40.3947 151.81 40.1164 151.715 39.7485 151.715C39.4263 151.715 39.1561 151.797 38.938 151.959C38.7199 152.122 38.6108 152.319 38.6108 152.55H37.7026C37.7026 152.287 37.7954 152.033 37.981 151.789C38.1698 151.541 38.4237 151.346 38.7427 151.203C39.0649 151.059 39.4181 150.988 39.8022 150.988C40.411 150.988 40.8879 151.141 41.2329 151.447C41.578 151.75 41.757 152.168 41.77 152.702V155.133C41.77 155.618 41.8319 156.004 41.9556 156.291V156.369H41.0083ZM39.5093 155.68C39.7925 155.68 40.061 155.607 40.3149 155.46C40.5688 155.314 40.7528 155.124 40.8667 154.889V153.805H40.1587C39.0519 153.805 38.4985 154.129 38.4985 154.777C38.4985 155.06 38.5929 155.281 38.7817 155.441C38.9705 155.6 39.2131 155.68 39.5093 155.68ZM44.4116 149.806V151.085H45.3979V151.784H44.4116V155.06C44.4116 155.272 44.4556 155.431 44.5435 155.539C44.6313 155.643 44.7811 155.695 44.9927 155.695C45.0968 155.695 45.2401 155.675 45.4224 155.636V156.369C45.1847 156.434 44.9536 156.466 44.729 156.466C44.3254 156.466 44.021 156.344 43.8159 156.1C43.6108 155.856 43.5083 155.509 43.5083 155.06V151.784H42.5464V151.085H43.5083V149.806H44.4116ZM49.7192 156.369C49.6672 156.264 49.6248 156.079 49.5923 155.812C49.1724 156.248 48.6711 156.466 48.0884 156.466C47.5675 156.466 47.1395 156.32 46.8042 156.027C46.4722 155.731 46.3062 155.356 46.3062 154.904C46.3062 154.354 46.5145 153.927 46.9312 153.625C47.3511 153.319 47.9403 153.166 48.6987 153.166H49.5776V152.75C49.5776 152.435 49.4832 152.184 49.2944 151.999C49.1056 151.81 48.8273 151.715 48.4595 151.715C48.1372 151.715 47.867 151.797 47.6489 151.959C47.4308 152.122 47.3218 152.319 47.3218 152.55H46.4136C46.4136 152.287 46.5063 152.033 46.6919 151.789C46.8807 151.541 47.1346 151.346 47.4536 151.203C47.7759 151.059 48.1291 150.988 48.5132 150.988C49.1219 150.988 49.5988 151.141 49.9438 151.447C50.2889 151.75 50.4679 152.168 50.481 152.702V155.133C50.481 155.618 50.5428 156.004 50.6665 156.291V156.369H49.7192ZM48.2202 155.68C48.5034 155.68 48.772 155.607 49.0259 155.46C49.2798 155.314 49.4637 155.124 49.5776 154.889V153.805H48.8696C47.7629 153.805 47.2095 154.129 47.2095 154.777C47.2095 155.06 47.3039 155.281 47.4927 155.441C47.6815 155.6 47.924 155.68 48.2202 155.68ZM54.9731 154.967C54.9731 154.723 54.8804 154.534 54.6948 154.401C54.5125 154.264 54.1919 154.147 53.7329 154.049C53.2772 153.952 52.9142 153.834 52.644 153.698C52.3771 153.561 52.1785 153.398 52.0483 153.209C51.9214 153.021 51.8579 152.796 51.8579 152.536C51.8579 152.103 52.0402 151.736 52.4048 151.437C52.7726 151.138 53.2414 150.988 53.811 150.988C54.41 150.988 54.895 151.142 55.2661 151.452C55.6405 151.761 55.8276 152.156 55.8276 152.638H54.9194C54.9194 152.391 54.8136 152.178 54.6021 151.999C54.3937 151.819 54.13 151.73 53.811 151.73C53.4823 151.73 53.2251 151.802 53.0396 151.945C52.854 152.088 52.7612 152.275 52.7612 152.506C52.7612 152.724 52.8475 152.889 53.02 153C53.1925 153.11 53.5034 153.216 53.9526 153.317C54.4051 153.418 54.7713 153.538 55.0513 153.678C55.3312 153.818 55.5379 153.987 55.6714 154.186C55.8081 154.381 55.8765 154.621 55.8765 154.904C55.8765 155.376 55.6877 155.755 55.3101 156.042C54.9325 156.325 54.4425 156.466 53.8403 156.466C53.4172 156.466 53.0428 156.391 52.7173 156.242C52.3918 156.092 52.1362 155.884 51.9507 155.617C51.7684 155.347 51.6772 155.055 51.6772 154.743H52.5806C52.5968 155.045 52.7173 155.286 52.9419 155.465C53.1698 155.641 53.4692 155.729 53.8403 155.729C54.1821 155.729 54.4556 155.661 54.6606 155.524C54.869 155.384 54.9731 155.198 54.9731 154.967ZM57.9565 151.725C58.3569 151.234 58.8778 150.988 59.519 150.988C60.6356 150.988 61.1987 151.618 61.2085 152.877V156.369H60.3052V152.873C60.3019 152.492 60.214 152.21 60.0415 152.028C59.8722 151.846 59.6069 151.754 59.2456 151.754C58.9526 151.754 58.6955 151.833 58.4741 151.989C58.2528 152.145 58.0802 152.35 57.9565 152.604V156.369H57.0532V148.869H57.9565V151.725ZM65.8228 156.369C65.7707 156.264 65.7284 156.079 65.6958 155.812C65.2759 156.248 64.7746 156.466 64.1919 156.466C63.6711 156.466 63.243 156.32 62.9077 156.027C62.5757 155.731 62.4097 155.356 62.4097 154.904C62.4097 154.354 62.618 153.927 63.0347 153.625C63.4546 153.319 64.0438 153.166 64.8022 153.166H65.6812V152.75C65.6812 152.435 65.5868 152.184 65.3979 151.999C65.2091 151.81 64.9308 151.715 64.563 151.715C64.2407 151.715 63.9705 151.797 63.7524 151.959C63.5343 152.122 63.4253 152.319 63.4253 152.55H62.5171C62.5171 152.287 62.6099 152.033 62.7954 151.789C62.9842 151.541 63.2381 151.346 63.5571 151.203C63.8794 151.059 64.2326 150.988 64.6167 150.988C65.2254 150.988 65.7023 151.141 66.0474 151.447C66.3924 151.75 66.5715 152.168 66.5845 152.702V155.133C66.5845 155.618 66.6463 156.004 66.77 156.291V156.369H65.8228ZM64.3237 155.68C64.6069 155.68 64.8755 155.607 65.1294 155.46C65.3833 155.314 65.5672 155.124 65.6812 154.889V153.805H64.9731C63.8664 153.805 63.313 154.129 63.313 154.777C63.313 155.06 63.4074 155.281 63.5962 155.441C63.785 155.6 64.0275 155.68 64.3237 155.68ZM70.6226 156.369V149.259H72.9468C73.7183 149.259 74.2977 149.419 74.6851 149.738C75.0757 150.057 75.271 150.529 75.271 151.154C75.271 151.486 75.1766 151.78 74.9878 152.038C74.799 152.292 74.5418 152.488 74.2163 152.628C74.6004 152.736 74.9032 152.941 75.1245 153.244C75.3491 153.543 75.4614 153.901 75.4614 154.318C75.4614 154.956 75.2547 155.457 74.8413 155.822C74.4279 156.186 73.8436 156.369 73.0884 156.369H70.6226ZM71.5601 153.043V155.602H73.1079C73.5441 155.602 73.8875 155.49 74.1382 155.265C74.3921 155.037 74.519 154.725 74.519 154.328C74.519 153.472 74.0535 153.043 73.1226 153.043H71.5601ZM71.5601 152.292H72.9761C73.3862 152.292 73.7134 152.189 73.9575 151.984C74.2049 151.779 74.3286 151.5 74.3286 151.149C74.3286 150.758 74.2147 150.475 73.9868 150.299C73.759 150.12 73.4123 150.031 72.9468 150.031H71.5601V152.292ZM77.6929 156.369H76.7896V148.869H77.6929V156.369ZM82.4048 156.369C82.3527 156.264 82.3104 156.079 82.2778 155.812C81.8579 156.248 81.3566 156.466 80.7739 156.466C80.2531 156.466 79.825 156.32 79.4897 156.027C79.1577 155.731 78.9917 155.356 78.9917 154.904C78.9917 154.354 79.2 153.927 79.6167 153.625C80.0366 153.319 80.6258 153.166 81.3843 153.166H82.2632V152.75C82.2632 152.435 82.1688 152.184 81.98 151.999C81.7912 151.81 81.5129 151.715 81.145 151.715C80.8228 151.715 80.5526 151.797 80.3345 151.959C80.1164 152.122 80.0073 152.319 80.0073 152.55H79.0991C79.0991 152.287 79.1919 152.033 79.3774 151.789C79.5662 151.541 79.8201 151.346 80.1392 151.203C80.4614 151.059 80.8146 150.988 81.1987 150.988C81.8075 150.988 82.2843 151.141 82.6294 151.447C82.9744 151.75 83.1535 152.168 83.1665 152.702V155.133C83.1665 155.618 83.2284 156.004 83.3521 156.291V156.369H82.4048ZM80.9058 155.68C81.189 155.68 81.4575 155.607 81.7114 155.46C81.9653 155.314 82.1493 155.124 82.2632 154.889V153.805H81.5552C80.4484 153.805 79.895 154.129 79.895 154.777C79.895 155.06 79.9894 155.281 80.1782 155.441C80.367 155.6 80.6095 155.68 80.9058 155.68ZM86.7017 155.729C87.0239 155.729 87.3055 155.631 87.5464 155.436C87.7873 155.241 87.9207 154.997 87.9468 154.704H88.8013C88.785 155.006 88.6808 155.294 88.4888 155.568C88.2967 155.841 88.0396 156.059 87.7173 156.222C87.3983 156.385 87.0597 156.466 86.7017 156.466C85.9823 156.466 85.4093 156.227 84.9829 155.749C84.5597 155.267 84.3481 154.609 84.3481 153.776V153.625C84.3481 153.11 84.4425 152.653 84.6313 152.252C84.8201 151.852 85.0903 151.541 85.4419 151.32C85.7967 151.098 86.215 150.988 86.6968 150.988C87.2892 150.988 87.7808 151.165 88.1714 151.52C88.5653 151.875 88.7752 152.335 88.8013 152.902H87.9468C87.9207 152.56 87.7905 152.28 87.5562 152.062C87.325 151.841 87.0386 151.73 86.6968 151.73C86.2378 151.73 85.8813 151.896 85.6274 152.228C85.3768 152.557 85.2515 153.034 85.2515 153.659V153.83C85.2515 154.438 85.3768 154.907 85.6274 155.236C85.8781 155.565 86.2362 155.729 86.7017 155.729ZM91.2915 153.922L90.7251 154.513V156.369H89.8218V148.869H90.7251V153.405L91.2085 152.824L92.854 151.085H93.9526L91.897 153.292L94.1919 156.369H93.1323L91.2915 153.922Z" fill="white"/>
</svg>
