<svg width="360" height="234" viewBox="0 0 360 234" fill="none" xmlns="http://www.w3.org/2000/svg">
<path d="M20.2272 230.855V228.355H30.6818V230.855H33.1818H48.6363H51.1363V228.355H61.5909V230.855H64.0909H79.5455H82.0455V228.355H92.5V230.855H95H110.455H112.955V228.355H123.409V230.855H125.909H141.364H143.864V228.355H154.318V230.855H156.818H172.273H174.773V228.355H185.227V230.855H187.727H203.182H205.682V228.355H216.136V230.855H218.636H234.091H236.591V228.355H247.045V230.855H249.545H265H267.5V228.355H277.955V230.855H280.455H295.909H298.409V228.355H308.864V230.855H311.364H326.818H329.318V228.355H339.773V230.855H342.273H350C354.142 230.855 357.5 227.497 357.5 223.355V215.735V213.235H355V202.996H357.5V200.496V185.256V182.756H355V172.516H357.5V170.016V154.777V152.277H355V142.037H357.5V139.537V124.297V121.797H355V111.558H357.5V109.058V93.8181V91.3181H355V81.0785H357.5V78.5785V63.3388V60.8388H355V50.5992H357.5V48.0992V32.8595V30.3595H355V20.1198H357.5V17.6198V10C357.5 5.85787 354.142 2.5 350 2.5H342.273H339.773V5H329.318V2.5H326.818H311.364H308.864V5H298.409V2.5H295.909H280.455H277.955V5H267.5V2.5H265H249.545H247.045V5H236.591V2.5H234.091H218.636H216.136V5H205.682V2.5H203.182H187.727H185.227V5H174.773V2.5H172.273H156.818H154.318V5H143.864V2.5H141.364H125.909H123.409V5H112.955V2.5H110.455H95H92.5V5H82.0455V2.5H79.5455H64.0909H61.5909V5H51.1364V2.5H48.6364H33.1818H30.6818V5H20.2273V2.5H17.7273H10C5.85787 2.5 2.5 5.85785 2.5 9.99999V17.6198V20.1198H5V30.3595H2.5V32.8595V48.0992V50.5992H5V60.8388H2.5V63.3388V78.5785V81.0785H5V91.3181H2.5V93.8181V109.058V111.558H5V121.797H2.5V124.297V139.537V142.037H5V152.277H2.5V154.777V170.016V172.516H5V182.756H2.5V185.256V200.496V202.996H5V213.235H2.5V215.735V223.355C2.5 227.497 5.85785 230.855 9.99999 230.855H17.7272H20.2272Z" fill="#5673DC" stroke="#2DD3E3" stroke-width="5" stroke-linecap="square" stroke-dasharray="15 15"/>
<mask id="mask0_279_6330" style="mask-type:alpha" maskUnits="userSpaceOnUse" x="5" y="5" width="351" height="224">
<rect x="5.32227" y="5" width="350" height="223.355" rx="5" fill="#4BA7DB"/>
</mask>
<g mask="url(#mask0_279_6330)">
<path d="M354.816 30C312.669 158.258 70.4408 12.7303 2.92839 200.629H-9V244.145H354.816V30Z" fill="#3558D5"/>
</g>
<path d="M37.8813 110.988L39.2876 108.673H40.5532L38.479 111.808L40.6177 115.013H39.3638L37.8989 112.64L36.4341 115.013H35.1743L37.313 111.808L35.2388 108.673H36.4927L37.8813 110.988ZM43.8345 110.988L45.2407 108.673H46.5063L44.4321 111.808L46.5708 115.013H45.3169L43.8521 112.64L42.3872 115.013H41.1274L43.2661 111.808L41.1919 108.673H42.4458L43.8345 110.988ZM49.7876 110.988L51.1938 108.673H52.4595L50.3853 111.808L52.5239 115.013H51.27L49.8052 112.64L48.3403 115.013H47.0806L49.2192 111.808L47.145 108.673H48.3989L49.7876 110.988ZM55.7407 110.988L57.147 108.673H58.4126L56.3384 111.808L58.4771 115.013H57.2231L55.7583 112.64L54.2935 115.013H53.0337L55.1724 111.808L53.0981 108.673H54.3521L55.7407 110.988ZM64.6704 110.988L66.0767 108.673H67.3423L65.2681 111.808L67.4067 115.013H66.1528L64.688 112.64L63.2231 115.013H61.9634L64.1021 111.808L62.0278 108.673H63.2817L64.6704 110.988ZM70.6235 110.988L72.0298 108.673H73.2954L71.2212 111.808L73.3599 115.013H72.106L70.6411 112.64L69.1763 115.013H67.9165L70.0552 111.808L67.981 108.673H69.2349L70.6235 110.988ZM76.5767 110.988L77.9829 108.673H79.2485L77.1743 111.808L79.313 115.013H78.0591L76.5942 112.64L75.1294 115.013H73.8696L76.0083 111.808L73.9341 108.673H75.188L76.5767 110.988ZM82.5298 110.988L83.936 108.673H85.2017L83.1274 111.808L85.2661 115.013H84.0122L82.5474 112.64L81.0825 115.013H79.8228L81.9614 111.808L79.8872 108.673H81.1411L82.5298 110.988ZM91.4595 110.988L92.8657 108.673H94.1313L92.0571 111.808L94.1958 115.013H92.9419L91.4771 112.64L90.0122 115.013H88.7524L90.8911 111.808L88.8169 108.673H90.0708L91.4595 110.988ZM97.4126 110.988L98.8188 108.673H100.084L98.0103 111.808L100.149 115.013H98.895L97.4302 112.64L95.9653 115.013H94.7056L96.8442 111.808L94.77 108.673H96.0239L97.4126 110.988ZM103.366 110.988L104.772 108.673H106.038L103.963 111.808L106.102 115.013H104.848L103.383 112.64L101.918 115.013H100.659L102.797 111.808L100.723 108.673H101.977L103.366 110.988ZM109.319 110.988L110.725 108.673H111.991L109.917 111.808L112.055 115.013H110.801L109.336 112.64L107.872 115.013H106.612L108.75 111.808L106.676 108.673H107.93L109.319 110.988ZM119.573 115.013H118.483V107.789L116.297 108.591V107.607L119.403 106.441H119.573V115.013ZM126.903 111.263C126.676 111.533 126.405 111.75 126.088 111.914C125.776 112.078 125.432 112.16 125.057 112.16C124.565 112.16 124.135 112.039 123.768 111.796C123.405 111.554 123.124 111.214 122.924 110.777C122.725 110.335 122.625 109.849 122.625 109.318C122.625 108.748 122.733 108.234 122.948 107.777C123.167 107.32 123.475 106.97 123.874 106.728C124.272 106.486 124.737 106.365 125.268 106.365C126.112 106.365 126.776 106.681 127.26 107.314C127.749 107.943 127.993 108.802 127.993 109.892V110.208C127.993 111.869 127.665 113.082 127.008 113.847C126.352 114.609 125.362 115 124.038 115.019H123.827V114.105H124.055C124.95 114.089 125.637 113.857 126.118 113.408C126.598 112.955 126.86 112.24 126.903 111.263ZM125.233 111.263C125.596 111.263 125.93 111.152 126.235 110.929C126.543 110.707 126.768 110.431 126.909 110.103V109.669C126.909 108.958 126.754 108.38 126.446 107.935C126.137 107.49 125.747 107.267 125.274 107.267C124.797 107.267 124.415 107.451 124.125 107.818C123.836 108.181 123.692 108.662 123.692 109.259C123.692 109.841 123.831 110.322 124.108 110.701C124.389 111.076 124.764 111.263 125.233 111.263ZM134.661 108.708C134.661 109.134 134.547 109.513 134.321 109.845C134.098 110.177 133.795 110.437 133.413 110.625C133.858 110.816 134.209 111.095 134.467 111.462C134.729 111.83 134.86 112.246 134.86 112.71C134.86 113.449 134.61 114.037 134.11 114.474C133.614 114.912 132.959 115.13 132.147 115.13C131.327 115.13 130.668 114.912 130.172 114.474C129.68 114.033 129.434 113.445 129.434 112.71C129.434 112.25 129.559 111.833 129.809 111.462C130.063 111.091 130.413 110.81 130.858 110.619C130.479 110.431 130.18 110.171 129.961 109.839C129.743 109.507 129.633 109.13 129.633 108.708C129.633 107.99 129.864 107.419 130.325 106.998C130.786 106.576 131.393 106.365 132.147 106.365C132.897 106.365 133.502 106.576 133.963 106.998C134.428 107.419 134.661 107.99 134.661 108.708ZM133.776 112.687C133.776 112.21 133.624 111.822 133.319 111.521C133.018 111.22 132.624 111.07 132.135 111.07C131.647 111.07 131.254 111.218 130.958 111.515C130.665 111.812 130.518 112.203 130.518 112.687C130.518 113.171 130.661 113.552 130.946 113.83C131.235 114.107 131.635 114.246 132.147 114.246C132.655 114.246 133.053 114.107 133.342 113.83C133.631 113.548 133.776 113.167 133.776 112.687ZM132.147 107.255C131.721 107.255 131.375 107.388 131.11 107.654C130.848 107.916 130.717 108.273 130.717 108.726C130.717 109.16 130.846 109.511 131.104 109.781C131.366 110.046 131.713 110.179 132.147 110.179C132.581 110.179 132.926 110.046 133.184 109.781C133.446 109.511 133.577 109.16 133.577 108.726C133.577 108.292 133.442 107.939 133.172 107.666C132.903 107.392 132.561 107.255 132.147 107.255ZM137.801 110.22H138.616C139.127 110.212 139.53 110.078 139.823 109.816C140.116 109.554 140.262 109.201 140.262 108.755C140.262 107.755 139.764 107.255 138.768 107.255C138.299 107.255 137.924 107.39 137.643 107.66C137.366 107.925 137.227 108.279 137.227 108.72H136.143C136.143 108.044 136.389 107.484 136.881 107.039C137.377 106.589 138.006 106.365 138.768 106.365C139.573 106.365 140.204 106.578 140.661 107.003C141.118 107.429 141.346 108.021 141.346 108.779C141.346 109.15 141.225 109.509 140.983 109.857C140.745 110.205 140.418 110.464 140.004 110.636C140.473 110.785 140.834 111.031 141.088 111.375C141.346 111.718 141.475 112.138 141.475 112.634C141.475 113.4 141.225 114.007 140.725 114.457C140.225 114.906 139.575 115.13 138.774 115.13C137.973 115.13 137.321 114.914 136.817 114.48C136.317 114.046 136.067 113.474 136.067 112.763H137.157C137.157 113.212 137.303 113.572 137.596 113.841C137.889 114.111 138.282 114.246 138.774 114.246C139.297 114.246 139.698 114.109 139.975 113.835C140.252 113.562 140.391 113.169 140.391 112.658C140.391 112.162 140.239 111.781 139.934 111.515C139.629 111.25 139.19 111.113 138.616 111.105H137.801V110.22Z" fill="white"/>
<path d="M38.4937 71.5659H37.5854V65.5454L35.7642 66.2144V65.394L38.3521 64.4224H38.4937V71.5659ZM45.5981 68.5337C45.5981 69.5916 45.4175 70.3778 45.0562 70.8921C44.6948 71.4064 44.13 71.6636 43.3618 71.6636C42.6034 71.6636 42.0418 71.4129 41.6772 70.9116C41.3127 70.4071 41.1239 69.6551 41.1108 68.6558V67.4497C41.1108 66.4048 41.2915 65.6284 41.6528 65.1206C42.0142 64.6128 42.5806 64.3589 43.3521 64.3589C44.117 64.3589 44.6802 64.6047 45.0415 65.0962C45.4028 65.5845 45.5884 66.3397 45.5981 67.3618V68.5337ZM44.6948 67.2983C44.6948 66.5334 44.5874 65.9767 44.3726 65.6284C44.1577 65.2769 43.8175 65.1011 43.3521 65.1011C42.8898 65.1011 42.5529 65.2752 42.3413 65.6235C42.1297 65.9718 42.0207 66.5073 42.0142 67.23V68.6753C42.0142 69.4435 42.1248 70.0116 42.3462 70.3794C42.5708 70.744 42.9093 70.9263 43.3618 70.9263C43.8078 70.9263 44.1382 70.7537 44.353 70.4087C44.5711 70.0636 44.6851 69.52 44.6948 68.7778V67.2983ZM47.0288 72.1763H46.2524L49.2212 64.4565H49.9927L47.0288 72.1763ZM55.5347 71.5659H50.8765V70.9165L53.3374 68.1821C53.702 67.7687 53.9526 67.4334 54.0894 67.1763C54.2293 66.9159 54.2993 66.6473 54.2993 66.3706C54.2993 65.9995 54.187 65.6951 53.9624 65.4575C53.7378 65.2199 53.4383 65.1011 53.064 65.1011C52.6147 65.1011 52.2648 65.2297 52.0142 65.4868C51.7668 65.7407 51.6431 66.0955 51.6431 66.5513H50.7397C50.7397 65.897 50.9497 65.368 51.3696 64.9644C51.7928 64.5607 52.3576 64.3589 53.064 64.3589C53.7248 64.3589 54.2472 64.533 54.6313 64.8813C55.0155 65.2264 55.2075 65.687 55.2075 66.2632C55.2075 66.9631 54.7616 67.7964 53.8696 68.7632L51.9653 70.8286H55.5347V71.5659ZM60.9497 68.5337C60.9497 69.5916 60.769 70.3778 60.4077 70.8921C60.0464 71.4064 59.4816 71.6636 58.7134 71.6636C57.9549 71.6636 57.3934 71.4129 57.0288 70.9116C56.6642 70.4071 56.4754 69.6551 56.4624 68.6558V67.4497C56.4624 66.4048 56.6431 65.6284 57.0044 65.1206C57.3657 64.6128 57.9321 64.3589 58.7036 64.3589C59.4686 64.3589 60.0317 64.6047 60.3931 65.0962C60.7544 65.5845 60.9399 66.3397 60.9497 67.3618V68.5337ZM60.0464 67.2983C60.0464 66.5334 59.939 65.9767 59.7241 65.6284C59.5093 65.2769 59.1691 65.1011 58.7036 65.1011C58.2414 65.1011 57.9045 65.2752 57.6929 65.6235C57.4813 65.9718 57.3722 66.5073 57.3657 67.23V68.6753C57.3657 69.4435 57.4764 70.0116 57.6978 70.3794C57.9224 70.744 58.2609 70.9263 58.7134 70.9263C59.1593 70.9263 59.4897 70.7537 59.7046 70.4087C59.9227 70.0636 60.0366 69.52 60.0464 68.7778V67.2983ZM66.7651 71.5659H62.1069V70.9165L64.5679 68.1821C64.9325 67.7687 65.1831 67.4334 65.3198 67.1763C65.4598 66.9159 65.5298 66.6473 65.5298 66.3706C65.5298 65.9995 65.4175 65.6951 65.1929 65.4575C64.9683 65.2199 64.6688 65.1011 64.2944 65.1011C63.8452 65.1011 63.4953 65.2297 63.2446 65.4868C62.9972 65.7407 62.8735 66.0955 62.8735 66.5513H61.9702C61.9702 65.897 62.1802 65.368 62.6001 64.9644C63.0233 64.5607 63.5881 64.3589 64.2944 64.3589C64.9552 64.3589 65.4777 64.533 65.8618 64.8813C66.2459 65.2264 66.438 65.687 66.438 66.2632C66.438 66.9631 65.992 67.7964 65.1001 68.7632L63.1958 70.8286H66.7651V71.5659ZM68.1372 68.0015L68.4985 64.4565H72.1411V65.2915H69.2651L69.0503 67.23C69.3986 67.0249 69.7941 66.9224 70.2368 66.9224C70.8846 66.9224 71.3989 67.1372 71.7798 67.5669C72.1606 67.9933 72.3511 68.5711 72.3511 69.3003C72.3511 70.0327 72.1525 70.6105 71.7554 71.0337C71.3615 71.4536 70.8097 71.6636 70.1001 71.6636C69.4718 71.6636 68.9591 71.4894 68.562 71.1411C68.1649 70.7928 67.9386 70.311 67.8833 69.6958H68.7378C68.7931 70.1027 68.938 70.4103 69.1724 70.6187C69.4067 70.8237 69.716 70.9263 70.1001 70.9263C70.52 70.9263 70.8488 70.783 71.0864 70.4966C71.3273 70.2101 71.4478 69.8146 71.4478 69.3101C71.4478 68.8348 71.3175 68.4539 71.0571 68.1675C70.8 67.8778 70.4565 67.7329 70.0269 67.7329C69.633 67.7329 69.3237 67.8192 69.0991 67.9917L68.8599 68.187L68.1372 68.0015Z" fill="white"/>
<path d="M41.2231 161.369H40.2808L36.7017 155.89V161.369H35.7593V154.259H36.7017L40.2905 159.762V154.259H41.2231V161.369ZM46.0083 161.369C45.9562 161.264 45.9139 161.079 45.8813 160.812C45.4614 161.248 44.9601 161.466 44.3774 161.466C43.8566 161.466 43.4285 161.32 43.0933 161.027C42.7612 160.731 42.5952 160.356 42.5952 159.904C42.5952 159.354 42.8035 158.927 43.2202 158.625C43.6401 158.319 44.2293 158.166 44.9878 158.166H45.8667V157.75C45.8667 157.435 45.7723 157.184 45.5835 156.999C45.3947 156.81 45.1164 156.715 44.7485 156.715C44.4263 156.715 44.1561 156.797 43.938 156.959C43.7199 157.122 43.6108 157.319 43.6108 157.55H42.7026C42.7026 157.287 42.7954 157.033 42.981 156.789C43.1698 156.541 43.4237 156.346 43.7427 156.203C44.0649 156.059 44.4181 155.988 44.8022 155.988C45.411 155.988 45.8879 156.141 46.2329 156.447C46.578 156.75 46.757 157.168 46.77 157.702V160.133C46.77 160.618 46.8319 161.004 46.9556 161.291V161.369H46.0083ZM44.5093 160.68C44.7925 160.68 45.061 160.607 45.3149 160.46C45.5688 160.314 45.7528 160.124 45.8667 159.889V158.805H45.1587C44.0519 158.805 43.4985 159.129 43.4985 159.777C43.4985 160.06 43.5929 160.281 43.7817 160.441C43.9705 160.6 44.2131 160.68 44.5093 160.68ZM49.4116 154.806V156.085H50.3979V156.784H49.4116V160.06C49.4116 160.272 49.4556 160.431 49.5435 160.539C49.6313 160.643 49.7811 160.695 49.9927 160.695C50.0968 160.695 50.2401 160.675 50.4224 160.636V161.369C50.1847 161.434 49.9536 161.466 49.729 161.466C49.3254 161.466 49.021 161.344 48.8159 161.1C48.6108 160.856 48.5083 160.509 48.5083 160.06V156.784H47.5464V156.085H48.5083V154.806H49.4116ZM54.7192 161.369C54.6672 161.264 54.6248 161.079 54.5923 160.812C54.1724 161.248 53.6711 161.466 53.0884 161.466C52.5675 161.466 52.1395 161.32 51.8042 161.027C51.4722 160.731 51.3062 160.356 51.3062 159.904C51.3062 159.354 51.5145 158.927 51.9312 158.625C52.3511 158.319 52.9403 158.166 53.6987 158.166H54.5776V157.75C54.5776 157.435 54.4832 157.184 54.2944 156.999C54.1056 156.81 53.8273 156.715 53.4595 156.715C53.1372 156.715 52.867 156.797 52.6489 156.959C52.4308 157.122 52.3218 157.319 52.3218 157.55H51.4136C51.4136 157.287 51.5063 157.033 51.6919 156.789C51.8807 156.541 52.1346 156.346 52.4536 156.203C52.7759 156.059 53.1291 155.988 53.5132 155.988C54.1219 155.988 54.5988 156.141 54.9438 156.447C55.2889 156.75 55.4679 157.168 55.481 157.702V160.133C55.481 160.618 55.5428 161.004 55.6665 161.291V161.369H54.7192ZM53.2202 160.68C53.5034 160.68 53.772 160.607 54.0259 160.46C54.2798 160.314 54.4637 160.124 54.5776 159.889V158.805H53.8696C52.7629 158.805 52.2095 159.129 52.2095 159.777C52.2095 160.06 52.3039 160.281 52.4927 160.441C52.6815 160.6 52.924 160.68 53.2202 160.68ZM59.9731 159.967C59.9731 159.723 59.8804 159.534 59.6948 159.401C59.5125 159.264 59.1919 159.147 58.7329 159.049C58.2772 158.952 57.9142 158.834 57.644 158.698C57.3771 158.561 57.1785 158.398 57.0483 158.209C56.9214 158.021 56.8579 157.796 56.8579 157.536C56.8579 157.103 57.0402 156.736 57.4048 156.437C57.7726 156.138 58.2414 155.988 58.811 155.988C59.41 155.988 59.895 156.142 60.2661 156.452C60.6405 156.761 60.8276 157.156 60.8276 157.638H59.9194C59.9194 157.391 59.8136 157.178 59.6021 156.999C59.3937 156.819 59.13 156.73 58.811 156.73C58.4823 156.73 58.2251 156.802 58.0396 156.945C57.854 157.088 57.7612 157.275 57.7612 157.506C57.7612 157.724 57.8475 157.889 58.02 158C58.1925 158.11 58.5034 158.216 58.9526 158.317C59.4051 158.418 59.7713 158.538 60.0513 158.678C60.3312 158.818 60.5379 158.987 60.6714 159.186C60.8081 159.381 60.8765 159.621 60.8765 159.904C60.8765 160.376 60.6877 160.755 60.3101 161.042C59.9325 161.325 59.4425 161.466 58.8403 161.466C58.4172 161.466 58.0428 161.391 57.7173 161.242C57.3918 161.092 57.1362 160.884 56.9507 160.617C56.7684 160.347 56.6772 160.055 56.6772 159.743H57.5806C57.5968 160.045 57.7173 160.286 57.9419 160.465C58.1698 160.641 58.4692 160.729 58.8403 160.729C59.1821 160.729 59.4556 160.661 59.6606 160.524C59.869 160.384 59.9731 160.198 59.9731 159.967ZM62.9565 156.725C63.3569 156.234 63.8778 155.988 64.519 155.988C65.6356 155.988 66.1987 156.618 66.2085 157.877V161.369H65.3052V157.873C65.3019 157.492 65.214 157.21 65.0415 157.028C64.8722 156.846 64.6069 156.754 64.2456 156.754C63.9526 156.754 63.6955 156.833 63.4741 156.989C63.2528 157.145 63.0802 157.35 62.9565 157.604V161.369H62.0532V153.869H62.9565V156.725ZM70.8228 161.369C70.7707 161.264 70.7284 161.079 70.6958 160.812C70.2759 161.248 69.7746 161.466 69.1919 161.466C68.6711 161.466 68.243 161.32 67.9077 161.027C67.5757 160.731 67.4097 160.356 67.4097 159.904C67.4097 159.354 67.618 158.927 68.0347 158.625C68.4546 158.319 69.0438 158.166 69.8022 158.166H70.6812V157.75C70.6812 157.435 70.5868 157.184 70.3979 156.999C70.2091 156.81 69.9308 156.715 69.563 156.715C69.2407 156.715 68.9705 156.797 68.7524 156.959C68.5343 157.122 68.4253 157.319 68.4253 157.55H67.5171C67.5171 157.287 67.6099 157.033 67.7954 156.789C67.9842 156.541 68.2381 156.346 68.5571 156.203C68.8794 156.059 69.2326 155.988 69.6167 155.988C70.2254 155.988 70.7023 156.141 71.0474 156.447C71.3924 156.75 71.5715 157.168 71.5845 157.702V160.133C71.5845 160.618 71.6463 161.004 71.77 161.291V161.369H70.8228ZM69.3237 160.68C69.6069 160.68 69.8755 160.607 70.1294 160.46C70.3833 160.314 70.5672 160.124 70.6812 159.889V158.805H69.9731C68.8664 158.805 68.313 159.129 68.313 159.777C68.313 160.06 68.4074 160.281 68.5962 160.441C68.785 160.6 69.0275 160.68 69.3237 160.68ZM75.6226 161.369V154.259H77.9468C78.7183 154.259 79.2977 154.419 79.6851 154.738C80.0757 155.057 80.271 155.529 80.271 156.154C80.271 156.486 80.1766 156.78 79.9878 157.038C79.799 157.292 79.5418 157.488 79.2163 157.628C79.6004 157.736 79.9032 157.941 80.1245 158.244C80.3491 158.543 80.4614 158.901 80.4614 159.318C80.4614 159.956 80.2547 160.457 79.8413 160.822C79.4279 161.186 78.8436 161.369 78.0884 161.369H75.6226ZM76.5601 158.043V160.602H78.1079C78.5441 160.602 78.8875 160.49 79.1382 160.265C79.3921 160.037 79.519 159.725 79.519 159.328C79.519 158.472 79.0535 158.043 78.1226 158.043H76.5601ZM76.5601 157.292H77.9761C78.3862 157.292 78.7134 157.189 78.9575 156.984C79.2049 156.779 79.3286 156.5 79.3286 156.149C79.3286 155.758 79.2147 155.475 78.9868 155.299C78.759 155.12 78.4123 155.031 77.9468 155.031H76.5601V157.292ZM82.6929 161.369H81.7896V153.869H82.6929V161.369ZM87.4048 161.369C87.3527 161.264 87.3104 161.079 87.2778 160.812C86.8579 161.248 86.3566 161.466 85.7739 161.466C85.2531 161.466 84.825 161.32 84.4897 161.027C84.1577 160.731 83.9917 160.356 83.9917 159.904C83.9917 159.354 84.2 158.927 84.6167 158.625C85.0366 158.319 85.6258 158.166 86.3843 158.166H87.2632V157.75C87.2632 157.435 87.1688 157.184 86.98 156.999C86.7912 156.81 86.5129 156.715 86.145 156.715C85.8228 156.715 85.5526 156.797 85.3345 156.959C85.1164 157.122 85.0073 157.319 85.0073 157.55H84.0991C84.0991 157.287 84.1919 157.033 84.3774 156.789C84.5662 156.541 84.8201 156.346 85.1392 156.203C85.4614 156.059 85.8146 155.988 86.1987 155.988C86.8075 155.988 87.2843 156.141 87.6294 156.447C87.9744 156.75 88.1535 157.168 88.1665 157.702V160.133C88.1665 160.618 88.2284 161.004 88.3521 161.291V161.369H87.4048ZM85.9058 160.68C86.189 160.68 86.4575 160.607 86.7114 160.46C86.9653 160.314 87.1493 160.124 87.2632 159.889V158.805H86.5552C85.4484 158.805 84.895 159.129 84.895 159.777C84.895 160.06 84.9894 160.281 85.1782 160.441C85.367 160.6 85.6095 160.68 85.9058 160.68ZM91.7017 160.729C92.0239 160.729 92.3055 160.631 92.5464 160.436C92.7873 160.241 92.9207 159.997 92.9468 159.704H93.8013C93.785 160.006 93.6808 160.294 93.4888 160.568C93.2967 160.841 93.0396 161.059 92.7173 161.222C92.3983 161.385 92.0597 161.466 91.7017 161.466C90.9823 161.466 90.4093 161.227 89.9829 160.749C89.5597 160.267 89.3481 159.609 89.3481 158.776V158.625C89.3481 158.11 89.4425 157.653 89.6313 157.252C89.8201 156.852 90.0903 156.541 90.4419 156.32C90.7967 156.098 91.215 155.988 91.6968 155.988C92.2892 155.988 92.7808 156.165 93.1714 156.52C93.5653 156.875 93.7752 157.335 93.8013 157.902H92.9468C92.9207 157.56 92.7905 157.28 92.5562 157.062C92.325 156.841 92.0386 156.73 91.6968 156.73C91.2378 156.73 90.8813 156.896 90.6274 157.228C90.3768 157.557 90.2515 158.034 90.2515 158.659V158.83C90.2515 159.438 90.3768 159.907 90.6274 160.236C90.8781 160.565 91.2362 160.729 91.7017 160.729ZM96.2915 158.922L95.7251 159.513V161.369H94.8218V153.869H95.7251V158.405L96.2085 157.824L97.854 156.085H98.9526L96.897 158.292L99.1919 161.369H98.1323L96.2915 158.922Z" fill="white"/>
<path d="M300.96 46.1799C300.9 48.8799 303.36 50.3799 305.22 51.2799C307.08 52.1799 307.74 52.7799 307.74 53.6199C307.74 54.8799 306.24 55.4199 304.86 55.4799C302.4 55.5399 301.02 54.8199 299.88 54.2799L298.98 58.3599C300.12 58.8999 302.22 59.3199 304.38 59.3799C309.48 59.3799 312.78 56.8599 312.84 52.9599C312.84 48.0399 306 47.7399 306.06 45.5199C306.06 44.8599 306.72 44.1399 308.1 43.9599C308.82 43.8399 310.68 43.7799 312.9 44.7999L313.74 40.8399C312.6 40.4199 311.1 39.9999 309.18 39.9999C304.38 39.9999 301.02 42.5199 300.96 46.1799ZM321.9 40.2999C321 40.2999 320.16 40.8399 319.86 41.6799L312.54 59.0199H317.64L318.66 56.1999H324.9L325.5 59.0199H330L326.1 40.2999H321.9ZM322.62 45.3999L324.06 52.4199H320.04L322.62 45.3999ZM294.84 40.2999L290.82 59.0199H295.68L299.7 40.2999H294.84ZM287.64 40.2999L282.6 53.0199L280.56 42.2199C280.32 41.0199 279.36 40.2999 278.34 40.2999H270.12L270 40.8399C271.68 41.1999 273.6 41.7999 274.8 42.4599C275.52 42.8199 275.7 43.1799 275.94 44.0799L279.78 59.0199H284.88L292.74 40.2999H287.64Z" fill="#2DD3E3"/>
</svg>
