<svg width="33" height="33" viewBox="0 0 33 33" fill="none" xmlns="http://www.w3.org/2000/svg">
<path d="M0.458496 16.5389C0.458496 7.65781 7.6406 0.458252 16.5002 0.458252C25.3597 0.458252 32.5418 7.65781 32.5418 16.5389C32.5418 24.8821 26.2034 31.7413 18.0903 32.5416C18.1337 32.5339 18.1771 32.5258 18.2204 32.517V21.155H22.3909L23.0149 16.3012H18.2204V13.2023C18.2204 11.7969 18.6095 10.8395 20.62 10.8395L23.1839 10.8382V6.49707C22.7403 6.43772 21.2186 6.30577 19.4477 6.30577C15.7512 6.30577 13.2201 8.56756 13.2201 12.7218V16.3012H9.03887V21.155H13.2201V32.2832C5.93367 30.7655 0.458496 24.2932 0.458496 16.5389Z" fill="#1A1A1A"/>
</svg>
