<svg width="33" height="33" viewBox="0 0 33 33" fill="none" xmlns="http://www.w3.org/2000/svg">
<path d="M16.726 13.3233V18.6751C16.726 19.2279 17.1739 19.6759 17.7267 19.6752C19.5971 19.6727 23.6065 19.6678 25.5204 19.6678C24.142 23.787 21.9996 26.0297 16.726 26.0297C11.389 26.0297 7.2234 21.763 7.2234 16.4993C7.2234 11.2368 11.389 6.97012 16.726 6.97012C19.5475 6.97012 21.37 7.9484 23.0416 9.3115C24.3793 7.99213 24.2677 7.80347 27.6717 4.6325C24.7817 2.03874 20.941 0.458252 16.726 0.458252C7.74251 0.458252 0.458496 7.6398 0.458496 16.4993C0.458496 25.3588 7.74251 32.5416 16.726 32.5416C30.1543 32.5416 33.4364 21.0109 32.3487 13.3233H16.726Z" fill="#1A1A1A"/>
</svg>
