<svg xmlns="http://www.w3.org/2000/svg" xmlns:xlink="http://www.w3.org/1999/xlink" width="500" zoomAndPan="magnify" viewBox="0 0 375 374.999991" height="500" preserveAspectRatio="xMidYMid meet" version="1.0"><defs><g/><clipPath id="8d6f52da18"><path d="M 141 115.789062 L 186 115.789062 L 186 205.039062 L 141 205.039062 Z M 141 115.789062 " clip-rule="nonzero"/></clipPath><clipPath id="4596d82475"><path d="M 174 115.789062 L 231 115.789062 L 231 205.039062 L 174 205.039062 Z M 174 115.789062 " clip-rule="nonzero"/></clipPath></defs><g fill="#d9d9d9" fill-opacity="1"><g transform="translate(142.024869, 240.017723)"><g><path d="M 17.40625 -16.796875 L 17.40625 0 L 13.515625 0 L 13.515625 -6.890625 L 5.875 -6.890625 L 5.875 0 L 1.984375 0 L 1.984375 -16.796875 L 5.875 -16.796875 L 5.875 -10.171875 L 13.515625 -10.171875 L 13.515625 -16.796875 Z M 17.40625 -16.796875 "/></g></g></g><g fill="#d9d9d9" fill-opacity="1"><g transform="translate(161.872904, 240.017723)"><g><path d="M 13.0625 -3.59375 L 5.25 -3.59375 L 3.765625 0 L -0.21875 0 L 7.265625 -16.796875 L 11.109375 -16.796875 L 18.625 0 L 14.546875 0 Z M 11.828125 -6.546875 L 9.171875 -12.984375 L 6.5 -6.546875 Z M 11.828125 -6.546875 "/></g></g></g><g fill="#d9d9d9" fill-opacity="1"><g transform="translate(180.712943, 240.017723)"><g><path d="M 9.265625 -16.796875 C 10.753906 -16.796875 12.046875 -16.546875 13.140625 -16.046875 C 14.234375 -15.554688 15.078125 -14.851562 15.671875 -13.9375 C 16.265625 -13.03125 16.5625 -11.953125 16.5625 -10.703125 C 16.5625 -9.472656 16.265625 -8.394531 15.671875 -7.46875 C 15.078125 -6.550781 14.234375 -5.847656 13.140625 -5.359375 C 12.046875 -4.867188 10.753906 -4.625 9.265625 -4.625 L 5.875 -4.625 L 5.875 0 L 1.984375 0 L 1.984375 -16.796875 Z M 9.046875 -7.796875 C 10.210938 -7.796875 11.097656 -8.046875 11.703125 -8.546875 C 12.316406 -9.054688 12.625 -9.773438 12.625 -10.703125 C 12.625 -11.648438 12.316406 -12.375 11.703125 -12.875 C 11.097656 -13.375 10.210938 -13.625 9.046875 -13.625 L 5.875 -13.625 L 5.875 -7.796875 Z M 9.046875 -7.796875 "/></g></g></g><g fill="#d9d9d9" fill-opacity="1"><g transform="translate(198.736972, 240.017723)"><g><path d="M 9.265625 -16.796875 C 10.753906 -16.796875 12.046875 -16.546875 13.140625 -16.046875 C 14.234375 -15.554688 15.078125 -14.851562 15.671875 -13.9375 C 16.265625 -13.03125 16.5625 -11.953125 16.5625 -10.703125 C 16.5625 -9.472656 16.265625 -8.394531 15.671875 -7.46875 C 15.078125 -6.550781 14.234375 -5.847656 13.140625 -5.359375 C 12.046875 -4.867188 10.753906 -4.625 9.265625 -4.625 L 5.875 -4.625 L 5.875 0 L 1.984375 0 L 1.984375 -16.796875 Z M 9.046875 -7.796875 C 10.210938 -7.796875 11.097656 -8.046875 11.703125 -8.546875 C 12.316406 -9.054688 12.625 -9.773438 12.625 -10.703125 C 12.625 -11.648438 12.316406 -12.375 11.703125 -12.875 C 11.097656 -13.375 10.210938 -13.625 9.046875 -13.625 L 5.875 -13.625 L 5.875 -7.796875 Z M 9.046875 -7.796875 "/></g></g></g><g fill="#d9d9d9" fill-opacity="1"><g transform="translate(216.761003, 240.017723)"><g><path d="M 10.0625 -5.953125 L 10.0625 0 L 6.171875 0 L 6.171875 -6 L -0.34375 -16.796875 L 3.796875 -16.796875 L 8.28125 -9.34375 L 12.765625 -16.796875 L 16.578125 -16.796875 Z M 10.0625 -5.953125 "/></g></g></g><g fill="#d9d9d9" fill-opacity="1"><g transform="translate(76.529212, 255.961478)"><g><path d="M 11.171875 -7 L 8.84375 0 L 7.46875 0 L 5.734375 -5.1875 L 3.984375 0 L 2.59375 0 L 0.265625 -7 L 1.625 -7 L 3.359375 -1.6875 L 5.171875 -7 L 6.375 -7 L 8.140625 -1.65625 L 9.9375 -7 Z M 11.171875 -7 "/></g></g></g><g fill="#d9d9d9" fill-opacity="1"><g transform="translate(91.374689, 255.961478)"><g><path d="M 6.1875 -1.09375 L 6.1875 0 L 0.9375 0 L 0.9375 -7 L 6.046875 -7 L 6.046875 -5.90625 L 2.234375 -5.90625 L 2.234375 -4.09375 L 5.625 -4.09375 L 5.625 -3.015625 L 2.234375 -3.015625 L 2.234375 -1.09375 Z M 6.1875 -1.09375 "/></g></g></g><g fill="#d9d9d9" fill-opacity="1"><g transform="translate(101.482037, 255.961478)"><g/></g></g><g fill="#d9d9d9" fill-opacity="1"><g transform="translate(107.650937, 255.961478)"><g><path d="M 11.171875 -7 L 8.84375 0 L 7.46875 0 L 5.734375 -5.1875 L 3.984375 0 L 2.59375 0 L 0.265625 -7 L 1.625 -7 L 3.359375 -1.6875 L 5.171875 -7 L 6.375 -7 L 8.140625 -1.65625 L 9.9375 -7 Z M 11.171875 -7 "/></g></g></g><g fill="#d9d9d9" fill-opacity="1"><g transform="translate(122.496412, 255.961478)"><g><path d="M 5.484375 -1.625 L 1.984375 -1.625 L 1.296875 0 L -0.046875 0 L 3.09375 -7 L 4.375 -7 L 7.546875 0 L 6.1875 0 Z M 5.046875 -2.640625 L 3.734375 -5.703125 L 2.421875 -2.640625 Z M 5.046875 -2.640625 "/></g></g></g><g fill="#d9d9d9" fill-opacity="1"><g transform="translate(133.393447, 255.961478)"><g><path d="M 7.15625 -7 L 7.15625 0 L 6.09375 0 L 2.234375 -4.734375 L 2.234375 0 L 0.9375 0 L 0.9375 -7 L 2.015625 -7 L 5.875 -2.265625 L 5.875 -7 Z M 7.15625 -7 "/></g></g></g><g fill="#d9d9d9" fill-opacity="1"><g transform="translate(144.900246, 255.961478)"><g><path d="M 2.359375 -5.90625 L 0.046875 -5.90625 L 0.046875 -7 L 5.984375 -7 L 5.984375 -5.90625 L 3.65625 -5.90625 L 3.65625 0 L 2.359375 0 Z M 2.359375 -5.90625 "/></g></g></g><g fill="#d9d9d9" fill-opacity="1"><g transform="translate(154.327859, 255.961478)"><g/></g></g><g fill="#d9d9d9" fill-opacity="1"><g transform="translate(160.496757, 255.961478)"><g><path d="M 3.953125 -2.46875 L 3.953125 0 L 2.65625 0 L 2.65625 -2.453125 L -0.09375 -7 L 1.296875 -7 L 3.34375 -3.59375 L 5.421875 -7 L 6.703125 -7 Z M 3.953125 -2.46875 "/></g></g></g><g fill="#d9d9d9" fill-opacity="1"><g transform="translate(170.514141, 255.961478)"><g><path d="M 4.203125 0.09375 C 3.492188 0.09375 2.851562 -0.0546875 2.28125 -0.359375 C 1.707031 -0.671875 1.253906 -1.101562 0.921875 -1.65625 C 0.597656 -2.207031 0.4375 -2.820312 0.4375 -3.5 C 0.4375 -4.175781 0.597656 -4.789062 0.921875 -5.34375 C 1.253906 -5.894531 1.707031 -6.320312 2.28125 -6.625 C 2.851562 -6.9375 3.492188 -7.09375 4.203125 -7.09375 C 4.921875 -7.09375 5.566406 -6.9375 6.140625 -6.625 C 6.710938 -6.320312 7.160156 -5.894531 7.484375 -5.34375 C 7.816406 -4.800781 7.984375 -4.1875 7.984375 -3.5 C 7.984375 -2.8125 7.816406 -2.191406 7.484375 -1.640625 C 7.160156 -1.097656 6.710938 -0.671875 6.140625 -0.359375 C 5.566406 -0.0546875 4.921875 0.09375 4.203125 0.09375 Z M 4.203125 -1.046875 C 4.671875 -1.046875 5.09375 -1.148438 5.46875 -1.359375 C 5.84375 -1.566406 6.132812 -1.859375 6.34375 -2.234375 C 6.5625 -2.609375 6.671875 -3.03125 6.671875 -3.5 C 6.671875 -3.96875 6.5625 -4.390625 6.34375 -4.765625 C 6.132812 -5.140625 5.84375 -5.429688 5.46875 -5.640625 C 5.09375 -5.847656 4.671875 -5.953125 4.203125 -5.953125 C 3.742188 -5.953125 3.328125 -5.847656 2.953125 -5.640625 C 2.578125 -5.429688 2.28125 -5.140625 2.0625 -4.765625 C 1.851562 -4.390625 1.75 -3.96875 1.75 -3.5 C 1.75 -3.03125 1.851562 -2.609375 2.0625 -2.234375 C 2.28125 -1.859375 2.578125 -1.566406 2.953125 -1.359375 C 3.328125 -1.148438 3.742188 -1.046875 4.203125 -1.046875 Z M 4.203125 -1.046875 "/></g></g></g><g fill="#d9d9d9" fill-opacity="1"><g transform="translate(182.34082, 255.961478)"><g><path d="M 3.953125 0.09375 C 2.984375 0.09375 2.226562 -0.175781 1.6875 -0.71875 C 1.144531 -1.257812 0.875 -2.035156 0.875 -3.046875 L 0.875 -7 L 2.1875 -7 L 2.1875 -3.09375 C 2.1875 -1.726562 2.773438 -1.046875 3.953125 -1.046875 C 5.140625 -1.046875 5.734375 -1.726562 5.734375 -3.09375 L 5.734375 -7 L 7.015625 -7 L 7.015625 -3.046875 C 7.015625 -2.035156 6.742188 -1.257812 6.203125 -0.71875 C 5.671875 -0.175781 4.921875 0.09375 3.953125 0.09375 Z M 3.953125 0.09375 "/></g></g></g><g fill="#d9d9d9" fill-opacity="1"><g transform="translate(193.637706, 255.961478)"><g><path d="M 5.515625 0 L 4.09375 -2.046875 C 4.03125 -2.046875 3.9375 -2.046875 3.8125 -2.046875 L 2.234375 -2.046875 L 2.234375 0 L 0.9375 0 L 0.9375 -7 L 3.8125 -7 C 4.425781 -7 4.957031 -6.898438 5.40625 -6.703125 C 5.851562 -6.503906 6.195312 -6.21875 6.4375 -5.84375 C 6.675781 -5.46875 6.796875 -5.023438 6.796875 -4.515625 C 6.796875 -3.984375 6.664062 -3.523438 6.40625 -3.140625 C 6.15625 -2.765625 5.789062 -2.484375 5.3125 -2.296875 L 6.921875 0 Z M 5.484375 -4.515625 C 5.484375 -4.960938 5.335938 -5.304688 5.046875 -5.546875 C 4.753906 -5.785156 4.328125 -5.90625 3.765625 -5.90625 L 2.234375 -5.90625 L 2.234375 -3.109375 L 3.765625 -3.109375 C 4.328125 -3.109375 4.753906 -3.226562 5.046875 -3.46875 C 5.335938 -3.71875 5.484375 -4.066406 5.484375 -4.515625 Z M 5.484375 -4.515625 "/></g></g></g><g fill="#d9d9d9" fill-opacity="1"><g transform="translate(204.354822, 255.961478)"><g/></g></g><g fill="#d9d9d9" fill-opacity="1"><g transform="translate(210.523725, 255.961478)"><g><path d="M 7.15625 -7 L 7.15625 0 L 5.859375 0 L 5.859375 -3 L 2.234375 -3 L 2.234375 0 L 0.9375 0 L 0.9375 -7 L 2.234375 -7 L 2.234375 -4.109375 L 5.859375 -4.109375 L 5.859375 -7 Z M 7.15625 -7 "/></g></g></g><g fill="#d9d9d9" fill-opacity="1"><g transform="translate(222.03053, 255.961478)"><g><path d="M 5.484375 -1.625 L 1.984375 -1.625 L 1.296875 0 L -0.046875 0 L 3.09375 -7 L 4.375 -7 L 7.546875 0 L 6.1875 0 Z M 5.046875 -2.640625 L 3.734375 -5.703125 L 2.421875 -2.640625 Z M 5.046875 -2.640625 "/></g></g></g><g fill="#d9d9d9" fill-opacity="1"><g transform="translate(232.92757, 255.961478)"><g><path d="M 3.8125 -7 C 4.425781 -7 4.957031 -6.898438 5.40625 -6.703125 C 5.851562 -6.503906 6.195312 -6.21875 6.4375 -5.84375 C 6.675781 -5.46875 6.796875 -5.023438 6.796875 -4.515625 C 6.796875 -4.003906 6.675781 -3.5625 6.4375 -3.1875 C 6.195312 -2.8125 5.851562 -2.519531 5.40625 -2.3125 C 4.957031 -2.113281 4.425781 -2.015625 3.8125 -2.015625 L 2.234375 -2.015625 L 2.234375 0 L 0.9375 0 L 0.9375 -7 Z M 3.765625 -3.125 C 4.328125 -3.125 4.753906 -3.242188 5.046875 -3.484375 C 5.335938 -3.722656 5.484375 -4.066406 5.484375 -4.515625 C 5.484375 -4.960938 5.335938 -5.304688 5.046875 -5.546875 C 4.753906 -5.785156 4.328125 -5.90625 3.765625 -5.90625 L 2.234375 -5.90625 L 2.234375 -3.125 Z M 3.765625 -3.125 "/></g></g></g><g fill="#d9d9d9" fill-opacity="1"><g transform="translate(243.594699, 255.961478)"><g><path d="M 3.8125 -7 C 4.425781 -7 4.957031 -6.898438 5.40625 -6.703125 C 5.851562 -6.503906 6.195312 -6.21875 6.4375 -5.84375 C 6.675781 -5.46875 6.796875 -5.023438 6.796875 -4.515625 C 6.796875 -4.003906 6.675781 -3.5625 6.4375 -3.1875 C 6.195312 -2.8125 5.851562 -2.519531 5.40625 -2.3125 C 4.957031 -2.113281 4.425781 -2.015625 3.8125 -2.015625 L 2.234375 -2.015625 L 2.234375 0 L 0.9375 0 L 0.9375 -7 Z M 3.765625 -3.125 C 4.328125 -3.125 4.753906 -3.242188 5.046875 -3.484375 C 5.335938 -3.722656 5.484375 -4.066406 5.484375 -4.515625 C 5.484375 -4.960938 5.335938 -5.304688 5.046875 -5.546875 C 4.753906 -5.785156 4.328125 -5.90625 3.765625 -5.90625 L 2.234375 -5.90625 L 2.234375 -3.125 Z M 3.765625 -3.125 "/></g></g></g><g fill="#d9d9d9" fill-opacity="1"><g transform="translate(254.261828, 255.961478)"><g><path d="M 0.9375 -7 L 2.234375 -7 L 2.234375 0 L 0.9375 0 Z M 0.9375 -7 "/></g></g></g><g fill="#d9d9d9" fill-opacity="1"><g transform="translate(260.860571, 255.961478)"><g><path d="M 7.15625 -7 L 7.15625 0 L 6.09375 0 L 2.234375 -4.734375 L 2.234375 0 L 0.9375 0 L 0.9375 -7 L 2.015625 -7 L 5.875 -2.265625 L 5.875 -7 Z M 7.15625 -7 "/></g></g></g><g fill="#d9d9d9" fill-opacity="1"><g transform="translate(272.367364, 255.961478)"><g><path d="M 6.1875 -1.09375 L 6.1875 0 L 0.9375 0 L 0.9375 -7 L 6.046875 -7 L 6.046875 -5.90625 L 2.234375 -5.90625 L 2.234375 -4.09375 L 5.625 -4.09375 L 5.625 -3.015625 L 2.234375 -3.015625 L 2.234375 -1.09375 Z M 6.1875 -1.09375 "/></g></g></g><g fill="#d9d9d9" fill-opacity="1"><g transform="translate(282.474717, 255.961478)"><g><path d="M 3.109375 0.09375 C 2.566406 0.09375 2.046875 0.0195312 1.546875 -0.125 C 1.046875 -0.28125 0.644531 -0.484375 0.34375 -0.734375 L 0.796875 -1.75 C 1.085938 -1.519531 1.441406 -1.332031 1.859375 -1.1875 C 2.273438 -1.050781 2.691406 -0.984375 3.109375 -0.984375 C 3.628906 -0.984375 4.015625 -1.066406 4.265625 -1.234375 C 4.523438 -1.398438 4.65625 -1.617188 4.65625 -1.890625 C 4.65625 -2.085938 4.582031 -2.25 4.4375 -2.375 C 4.300781 -2.507812 4.117188 -2.613281 3.890625 -2.6875 C 3.671875 -2.757812 3.375 -2.84375 3 -2.9375 C 2.46875 -3.0625 2.035156 -3.1875 1.703125 -3.3125 C 1.367188 -3.445312 1.082031 -3.644531 0.84375 -3.90625 C 0.613281 -4.175781 0.5 -4.546875 0.5 -5.015625 C 0.5 -5.398438 0.601562 -5.75 0.8125 -6.0625 C 1.019531 -6.382812 1.335938 -6.632812 1.765625 -6.8125 C 2.191406 -7 2.707031 -7.09375 3.3125 -7.09375 C 3.738281 -7.09375 4.160156 -7.039062 4.578125 -6.9375 C 4.992188 -6.832031 5.351562 -6.679688 5.65625 -6.484375 L 5.234375 -5.46875 C 4.929688 -5.644531 4.613281 -5.78125 4.28125 -5.875 C 3.945312 -5.96875 3.625 -6.015625 3.3125 -6.015625 C 2.800781 -6.015625 2.421875 -5.925781 2.171875 -5.75 C 1.921875 -5.582031 1.796875 -5.351562 1.796875 -5.0625 C 1.796875 -4.863281 1.863281 -4.703125 2 -4.578125 C 2.144531 -4.453125 2.328125 -4.351562 2.546875 -4.28125 C 2.765625 -4.207031 3.066406 -4.125 3.453125 -4.03125 C 3.972656 -3.90625 4.398438 -3.773438 4.734375 -3.640625 C 5.066406 -3.515625 5.347656 -3.316406 5.578125 -3.046875 C 5.816406 -2.785156 5.9375 -2.429688 5.9375 -1.984375 C 5.9375 -1.597656 5.832031 -1.242188 5.625 -0.921875 C 5.414062 -0.609375 5.097656 -0.359375 4.671875 -0.171875 C 4.242188 0.00390625 3.722656 0.09375 3.109375 0.09375 Z M 3.109375 0.09375 "/></g></g></g><g fill="#d9d9d9" fill-opacity="1"><g transform="translate(292.172234, 255.961478)"><g><path d="M 3.109375 0.09375 C 2.566406 0.09375 2.046875 0.0195312 1.546875 -0.125 C 1.046875 -0.28125 0.644531 -0.484375 0.34375 -0.734375 L 0.796875 -1.75 C 1.085938 -1.519531 1.441406 -1.332031 1.859375 -1.1875 C 2.273438 -1.050781 2.691406 -0.984375 3.109375 -0.984375 C 3.628906 -0.984375 4.015625 -1.066406 4.265625 -1.234375 C 4.523438 -1.398438 4.65625 -1.617188 4.65625 -1.890625 C 4.65625 -2.085938 4.582031 -2.25 4.4375 -2.375 C 4.300781 -2.507812 4.117188 -2.613281 3.890625 -2.6875 C 3.671875 -2.757812 3.375 -2.84375 3 -2.9375 C 2.46875 -3.0625 2.035156 -3.1875 1.703125 -3.3125 C 1.367188 -3.445312 1.082031 -3.644531 0.84375 -3.90625 C 0.613281 -4.175781 0.5 -4.546875 0.5 -5.015625 C 0.5 -5.398438 0.601562 -5.75 0.8125 -6.0625 C 1.019531 -6.382812 1.335938 -6.632812 1.765625 -6.8125 C 2.191406 -7 2.707031 -7.09375 3.3125 -7.09375 C 3.738281 -7.09375 4.160156 -7.039062 4.578125 -6.9375 C 4.992188 -6.832031 5.351562 -6.679688 5.65625 -6.484375 L 5.234375 -5.46875 C 4.929688 -5.644531 4.613281 -5.78125 4.28125 -5.875 C 3.945312 -5.96875 3.625 -6.015625 3.3125 -6.015625 C 2.800781 -6.015625 2.421875 -5.925781 2.171875 -5.75 C 1.921875 -5.582031 1.796875 -5.351562 1.796875 -5.0625 C 1.796875 -4.863281 1.863281 -4.703125 2 -4.578125 C 2.144531 -4.453125 2.328125 -4.351562 2.546875 -4.28125 C 2.765625 -4.207031 3.066406 -4.125 3.453125 -4.03125 C 3.972656 -3.90625 4.398438 -3.773438 4.734375 -3.640625 C 5.066406 -3.515625 5.347656 -3.316406 5.578125 -3.046875 C 5.816406 -2.785156 5.9375 -2.429688 5.9375 -1.984375 C 5.9375 -1.597656 5.832031 -1.242188 5.625 -0.921875 C 5.414062 -0.609375 5.097656 -0.359375 4.671875 -0.171875 C 4.242188 0.00390625 3.722656 0.09375 3.109375 0.09375 Z M 3.109375 0.09375 "/></g></g></g><g clip-path="url(#8d6f52da18)"><path fill="#e5ecf4" d="M 183.179688 115.792969 L 165.4375 115.792969 L 165.4375 139.957031 L 141.335938 139.957031 L 141.335938 180.855469 L 165.4375 180.855469 L 165.4375 205.023438 C 222.285156 160.253906 135.621094 149.480469 183.179688 115.792969 " fill-opacity="1" fill-rule="nonzero"/></g><g clip-path="url(#4596d82475)"><path fill="#eaf8bf" d="M 206.226562 139.957031 L 206.226562 115.792969 L 184.175781 115.792969 C 145.476562 154.019531 239.113281 155.925781 191.226562 205.023438 L 206.226562 205.023438 L 206.226562 180.855469 L 230.332031 180.855469 L 230.332031 139.957031 L 206.226562 139.957031 " fill-opacity="1" fill-rule="nonzero"/></g></svg>