<svg xmlns="http://www.w3.org/2000/svg" xmlns:xlink="http://www.w3.org/1999/xlink" width="940" zoomAndPan="magnify" viewBox="0 0 705 591.000005" height="788" preserveAspectRatio="xMidYMid meet" version="1.0"><defs><clipPath id="aadc98ebf9"><path d="M 109 132 L 666 132 L 666 573.53125 L 109 573.53125 Z M 109 132 " clip-rule="nonzero"/></clipPath></defs><path fill="#bbe5e1" d="M 219.125 275.511719 C 189.441406 272.257812 189.441406 272.257812 189.441406 272.257812 L 196.675781 286.726562 L 157.226562 287.746094 L 107.714844 392.171875 C 107.714844 392.171875 61.671875 376.386719 58.414062 341.671875 C 55.15625 306.957031 83.390625 250.5625 83.390625 250.5625 C 83.390625 250.5625 76.515625 214.039062 73.253906 193.792969 C 69.996094 173.546875 84.109375 151.492188 103.65625 150.761719 C 123.207031 150.046875 123.207031 150.046875 123.207031 150.046875 L 160.847656 222 L 165.195312 219.460938 L 165.914062 153.660156 C 165.914062 153.660156 195.597656 152.941406 209.707031 175.710938 C 223.820312 198.496094 232.515625 211.863281 240.46875 229.585938 C 248.449219 247.308594 248.808594 278.765625 219.125 275.511719 Z M 277.257812 489.460938 C 277.257812 489.460938 264.023438 485.9375 257.414062 494.746094 L 240.21875 478.445312 C 240.21875 478.445312 232.277344 489.898438 242.425781 502.664062 C 252.558594 515.433594 272.839844 533.5 278.132812 539.226562 C 283.425781 544.953125 288.722656 542.746094 286.953125 532.183594 C 285.195312 521.609375 277.257812 489.460938 277.257812 489.460938 Z M 403.800781 559.925781 C 395.421875 555.964844 359.273438 537.898438 359.273438 537.898438 C 359.273438 537.898438 352.664062 541.855469 353.105469 550.664062 L 321.359375 550.664062 C 321.359375 550.664062 322.675781 572.691406 337.222656 572.691406 C 351.773438 572.691406 395.863281 572.691406 403.800781 572.691406 C 411.726562 572.707031 412.179688 563.898438 403.800781 559.925781 Z M 403.800781 559.925781 " fill-opacity="1" fill-rule="nonzero"/><path fill="#00bfa8" d="M 129.179688 390.644531 C 173.082031 390.644531 248.332031 390.644531 248.332031 390.644531 L 244.339844 405.457031 C 244.339844 405.457031 236.933594 420.269531 211.277344 420.269531 C 185.621094 420.269531 116.066406 420.269531 92.6875 420.269531 C 69.304688 420.269531 62.46875 403.183594 54.488281 386.671875 C 46.511719 370.15625 31.109375 290.988281 28.261719 275.046875 C 25.417969 259.105469 37.386719 252.261719 48.785156 252.261719 C 60.183594 252.261719 83.390625 252.261719 83.390625 252.261719 C 83.390625 252.261719 67.019531 290.988281 60.183594 322.316406 C 53.347656 353.628906 85.277344 390.644531 129.179688 390.644531 Z M 655.308594 249.964844 C 655.308594 249.964844 642.765625 301.21875 634.789062 330.832031 C 626.808594 360.445312 597.136719 381.515625 573.183594 381.515625 C 549.246094 381.515625 540.707031 380.945312 540.707031 380.945312 L 533.511719 420.640625 C 533.511719 420.640625 566.894531 420.640625 602.242188 420.640625 C 637.59375 420.640625 655.878906 391.773438 663.859375 356.460938 C 671.839844 321.148438 676.402344 290.390625 678.117188 272.175781 C 679.820312 253.964844 663.859375 249.964844 655.308594 249.964844 Z M 655.308594 249.964844 " fill-opacity="1" fill-rule="nonzero"/><g clip-path="url(#aadc98ebf9)"><path fill="#ffffff" d="M 309.109375 373.945312 L 340.414062 497.246094 L 289.835938 497.246094 L 276.589844 471.378906 L 279.292969 455.238281 L 238.074219 441.511719 L 248.316406 390.644531 C 248.316406 390.644531 146.972656 390.644531 129.167969 390.644531 C 111.359375 390.644531 109.136719 387.507812 109.136719 387.507812 L 157.226562 287.734375 L 196.675781 286.710938 C 196.675781 286.710938 233.234375 286.710938 267.546875 286.710938 C 301.875 286.710938 325.347656 310.1875 317.527344 340.25 C 309.707031 370.328125 309.109375 373.945312 309.109375 373.945312 Z M 634.441406 138.40625 C 617.789062 134.050781 593.214844 132.46875 593.214844 132.46875 C 593.214844 132.46875 572.996094 146.722656 556.347656 138.40625 C 556.347656 138.40625 529.386719 143.164062 522.246094 158.203125 C 515.105469 173.253906 493.707031 220.378906 493.707031 220.378906 L 438.207031 155.824219 L 409.265625 181.570312 C 409.265625 181.570312 458.421875 244.941406 471.109375 261.574219 C 483.796875 278.210938 513.136719 275.433594 513.136719 275.433594 L 510.355469 292.066406 L 517.5 325.332031 C 517.5 325.332031 582.121094 317.015625 605.914062 314.636719 C 629.707031 312.257812 641.996094 301.167969 645.957031 287.707031 C 649.921875 274.238281 664.191406 216.019531 665.390625 187.109375 C 666.558594 158.214844 651.09375 142.765625 634.441406 138.40625 Z M 450.230469 555.765625 C 450.230469 555.765625 442.328125 556.855469 442.328125 563.152344 C 442.328125 569.449219 444.523438 573.554688 450.003906 573.554688 C 455.484375 573.554688 511.382812 573.554688 520.050781 573.554688 C 528.722656 573.554688 525.410156 555.859375 525.410156 555.859375 Z M 450.230469 555.765625 " fill-opacity="1" fill-rule="nonzero"/></g><path fill="#f79a91" d="M 188.03125 89.039062 C 190.398438 102.269531 188.03125 125.917969 178.5625 133.476562 C 169.089844 141.039062 161.285156 141.753906 161.285156 141.753906 L 161.617188 146.058594 L 155.0625 156.101562 L 151.125 170.292969 L 148.277344 157.417969 L 131.933594 146.484375 C 131.933594 146.484375 130.988281 138.925781 125.308594 137.023438 C 119.628906 135.125 101.742188 107.570312 106 89.132812 C 110.253906 70.691406 124.367188 50.511719 152.519531 55 C 180.6875 59.492188 185.664062 75.804688 188.03125 89.039062 Z M 190.222656 213.496094 L 206.222656 229.292969 L 198.871094 211.847656 C 198.871094 211.847656 194.8125 210.746094 190.222656 213.496094 Z M 133.96875 221.386719 C 123.859375 223.222656 118.40625 225.90625 116.199219 228.296875 C 113.992188 230.6875 109.894531 243.613281 109.710938 248.023438 C 109.523438 252.433594 108.976562 261.972656 113.753906 261.972656 C 118.527344 261.972656 131.214844 254.441406 135.988281 251.503906 C 140.765625 248.570312 142.785156 234.605469 142.785156 234.605469 L 155.285156 226.15625 C 155.300781 226.171875 144.089844 219.554688 133.96875 221.386719 Z M 350.882812 530.300781 C 348.753906 524.613281 340.414062 497.246094 340.414062 497.246094 L 305.890625 496.925781 C 305.890625 496.925781 316.996094 524.148438 319.125 533.621094 C 321.25 543.09375 321.34375 550.691406 321.34375 550.691406 C 321.34375 550.691406 344.726562 550.691406 353.089844 550.691406 C 353.875 544.089844 359.261719 537.925781 359.261719 537.925781 C 359.261719 537.925781 353.023438 535.972656 350.882812 530.300781 Z M 279.304688 455.238281 L 247.8125 444.847656 C 247.8125 444.847656 246.867188 451.714844 244.964844 461.652344 C 243.0625 471.589844 240.230469 478.460938 240.230469 478.460938 L 257.425781 494.761719 C 266.324219 486.667969 277.269531 489.472656 277.269531 489.472656 C 277.269531 489.472656 275.78125 479.175781 276.605469 471.390625 C 277.429688 463.59375 279.304688 455.238281 279.304688 455.238281 Z M 473.105469 489.179688 L 461.574219 491.757812 C 461.574219 491.757812 465.605469 501.152344 468.023438 512.152344 C 470.445312 523.152344 468.289062 531.734375 466.949219 535.492188 L 469.367188 536.835938 C 469.367188 536.835938 473.664062 532.808594 475.007812 527.441406 C 475.007812 527.441406 496.234375 522.339844 504.277344 538.175781 L 519.320312 538.175781 L 519.851562 512.960938 L 475.035156 512.960938 Z M 492.550781 318.210938 C 512.046875 316.207031 514.546875 313.1875 514.546875 313.1875 L 510.355469 292.066406 C 510.355469 292.066406 501.019531 293.074219 490.0625 293.671875 C 479.101562 294.269531 465.445312 297.234375 461.894531 300.195312 C 458.328125 303.160156 449.140625 311.449219 450.03125 318.558594 C 456.761719 317.8125 457.238281 317.070312 457.238281 317.070312 C 457.238281 317.070312 473.050781 320.21875 492.550781 318.210938 Z M 398.535156 138.84375 C 389.636719 138.140625 385.183594 137.332031 380.621094 136.734375 C 376.058594 136.148438 374.648438 140.121094 376.871094 141.769531 C 379.089844 143.402344 385.0625 146.445312 385.0625 146.445312 L 371.246094 150.417969 C 371.246094 150.417969 361.402344 145.742188 358.476562 144.09375 C 355.550781 142.460938 350.164062 145.847656 354.605469 149.832031 C 359.0625 153.804688 366.429688 157.671875 371.710938 160.472656 C 376.976562 163.277344 387.988281 163.515625 398.054688 163.863281 C 408.125 164.207031 411.648438 164.101562 411.648438 164.101562 L 419.375 172.523438 L 438.207031 155.824219 C 438.207031 155.824219 429.335938 147.71875 423.003906 144.09375 C 416.6875 140.480469 407.433594 139.550781 398.535156 138.84375 Z M 596.882812 56.328125 C 592.867188 23.992188 523.378906 19.25 516.0625 59.347656 C 508.746094 99.441406 516.0625 108.476562 525.929688 119.078125 C 535.800781 129.664062 554.085938 127.113281 554.085938 127.113281 L 556.332031 138.421875 C 576.136719 147.070312 593.199219 132.480469 593.199219 132.480469 L 584.820312 116.246094 C 584.820312 116.246094 600.898438 88.652344 596.882812 56.328125 Z M 596.882812 56.328125 " fill-opacity="1" fill-rule="nonzero"/><path fill="#28407e" d="M 236.867188 558.425781 C 237.71875 562.195312 234.84375 565.785156 230.972656 565.785156 C 228.246094 565.785156 225.855469 563.964844 225.148438 561.332031 L 186.300781 420.136719 L 205.558594 419.859375 Z M 606.816406 419.859375 L 587.5625 420.136719 L 626.410156 561.332031 C 627.125 563.964844 629.507812 565.785156 632.234375 565.785156 C 636.105469 565.785156 638.976562 562.195312 638.125 558.425781 Z M 64.835938 558.425781 C 63.984375 562.195312 66.859375 565.785156 70.726562 565.785156 C 73.453125 565.785156 75.847656 563.964844 76.554688 561.332031 L 115.402344 420.136719 L 96.144531 419.859375 Z M 645.945312 287.707031 C 645.945312 287.707031 639.601562 308.9375 614.824219 312.804688 C 590.046875 316.671875 517.5 325.332031 517.5 325.332031 L 514.546875 313.1875 C 514.546875 313.1875 487.441406 322.089844 457.238281 317.054688 C 457.238281 317.054688 425.878906 321.691406 418.136719 342.589844 C 410.398438 363.472656 416.195312 382.816406 420.464844 400.992188 C 424.722656 419.167969 450.28125 495.371094 450.28125 495.371094 L 473.132812 489.179688 L 475.074219 513.160156 L 477.082031 513.160156 C 477.242188 516.242188 477.320312 522.433594 475.710938 527.324219 C 475.484375 527.363281 475.257812 527.402344 475.035156 527.441406 C 475.035156 527.441406 473.410156 531.601562 470.738281 535.335938 L 466.972656 535.480469 C 466.972656 535.480469 459.671875 548.15625 449.65625 555.847656 L 525.4375 555.847656 C 525.4375 555.847656 524.574219 538.164062 519.347656 538.164062 C 514.132812 538.164062 504.304688 538.164062 504.304688 538.164062 C 504.304688 538.164062 499.96875 523.777344 477.71875 526.976562 C 479.128906 521.996094 479.089844 516.214844 478.917969 513.148438 L 526.171875 513.148438 C 526.171875 513.148438 537.394531 423.03125 541.664062 382.417969 C 541.664062 382.417969 547.089844 382.417969 570.710938 382.417969 C 594.304688 382.433594 635.253906 372.46875 645.945312 287.707031 Z M 548.289062 83.949219 C 549.5625 83.949219 550.601562 82.914062 550.601562 81.636719 C 550.601562 80.363281 549.5625 79.328125 548.289062 79.328125 C 547.011719 79.328125 545.972656 80.363281 545.972656 81.636719 C 545.972656 82.914062 547.011719 83.949219 548.289062 83.949219 Z M 520.144531 86.128906 C 521.421875 86.128906 522.460938 85.09375 522.460938 83.816406 C 522.460938 82.542969 521.421875 81.503906 520.144531 81.503906 C 518.867188 81.503906 517.832031 82.542969 517.832031 83.816406 C 517.832031 85.09375 518.867188 86.128906 520.144531 86.128906 Z M 452.144531 312.457031 C 451.652344 312.578125 451.359375 313.082031 451.480469 313.574219 C 451.585938 313.988281 451.957031 314.265625 452.371094 314.265625 C 452.449219 314.265625 452.515625 314.253906 452.597656 314.238281 C 452.636719 314.226562 457.09375 313.136719 461.28125 313.136719 C 461.789062 313.136719 462.199219 312.722656 462.199219 312.21875 C 462.199219 311.714844 461.789062 311.304688 461.28125 311.304688 C 456.851562 311.289062 452.34375 312.40625 452.144531 312.457031 Z M 465.351562 308.007812 C 465.832031 308.0625 466.308594 307.703125 466.363281 307.199219 C 466.414062 306.691406 466.054688 306.242188 465.550781 306.1875 C 460.324219 305.617188 455.375 306.917969 455.164062 306.972656 C 454.671875 307.105469 454.378906 307.609375 454.511719 308.085938 C 454.617188 308.5 454.992188 308.765625 455.402344 308.765625 C 455.484375 308.765625 455.5625 308.753906 455.644531 308.738281 C 455.683594 308.726562 460.457031 307.464844 465.351562 308.007812 Z M 471.191406 303.265625 C 471.230469 303.265625 471.28125 303.277344 471.324219 303.277344 C 471.773438 303.277344 472.160156 302.945312 472.226562 302.496094 C 472.308594 301.988281 471.960938 301.523438 471.457031 301.457031 C 466.253906 300.6875 461.519531 301.433594 461.320312 301.457031 C 460.816406 301.539062 460.484375 302.003906 460.5625 302.507812 C 460.644531 303.011719 461.082031 303.359375 461.613281 303.265625 C 461.652344 303.265625 466.28125 302.546875 471.191406 303.265625 Z M 386.9375 149.578125 C 376.550781 150.097656 371.390625 149.527344 371.351562 149.511719 C 370.820312 149.445312 370.394531 149.820312 370.339844 150.324219 C 370.285156 150.828125 370.644531 151.28125 371.152344 151.332031 C 371.363281 151.359375 376.484375 151.929688 387.042969 151.398438 C 397.894531 150.855469 404.867188 150.777344 409.984375 154.242188 C 410.144531 154.347656 410.316406 154.402344 410.503906 154.402344 C 410.796875 154.402344 411.089844 154.257812 411.261719 154.003906 C 411.542969 153.578125 411.433594 153.019531 411.023438 152.730469 C 405.410156 148.957031 398.1875 149.023438 386.9375 149.578125 Z M 527.527344 75.339844 C 527.605469 75.394531 527.6875 75.5 527.765625 75.566406 C 530.148438 74.34375 532.554688 75.0625 533.832031 75.621094 C 533.910156 75.527344 533.976562 75.40625 534.070312 75.328125 C 544.378906 66.148438 557.210938 71.847656 560.84375 74.292969 L 567.996094 72.007812 C 568.0625 71.394531 568.15625 70.769531 568.304688 70.09375 C 568.304688 70.09375 553.289062 69.800781 556.757812 52.503906 C 556.757812 52.503906 539.722656 64.472656 527.3125 52.210938 C 527.3125 52.210938 524.574219 57.113281 517.207031 56.542969 L 514.175781 71.394531 C 514.175781 71.394531 505.941406 66.492188 509.839844 55.679688 C 509.839844 55.679688 502.761719 38.234375 511.714844 30.449219 C 520.664062 22.664062 532.207031 27.421875 532.207031 27.421875 C 532.207031 27.421875 536.96875 18.332031 549.097656 19.34375 C 561.226562 20.351562 566.136719 27.566406 566.136719 27.566406 C 566.136719 27.566406 577.253906 18.625 588.652344 25.695312 C 600.050781 32.761719 598.171875 44.441406 598.171875 44.441406 C 598.171875 44.441406 609.4375 45.742188 612.324219 60.875 C 615.210938 76.019531 604.09375 84.082031 604.09375 84.082031 C 604.09375 84.082031 606.113281 99.800781 599.476562 108.59375 C 592.839844 117.390625 584.820312 116.21875 584.820312 116.21875 C 584.820312 116.21875 577.398438 109.164062 581.589844 96.1875 C 581.589844 96.1875 593.996094 92.585938 593.28125 78.886719 C 592.5625 65.191406 581.441406 69.375 581.441406 69.375 L 575.085938 84.375 C 575.085938 84.375 567.984375 82.261719 567.890625 73.960938 L 562.132812 75.792969 C 563.0625 77.8125 563.328125 81.53125 562.199219 84.90625 C 561.09375 88.203125 557.808594 93.714844 548.128906 93.714844 C 538.113281 93.714844 534.574219 88.359375 533.351562 85.160156 C 532.25 82.277344 532.300781 79.246094 532.980469 77.214844 C 532.035156 76.816406 530.386719 76.378906 528.761719 77.136719 C 529.480469 79.140625 529.628906 82.304688 529.03125 85.34375 L 529.894531 85.558594 C 529.894531 85.558594 528.617188 90.792969 527.914062 93.820312 C 527.820312 94.246094 527.738281 94.804688 527.914062 95.058594 C 528.246094 95.523438 529.761719 95.65625 531.503906 95.8125 C 531.980469 95.855469 532.5 95.90625 533.058594 95.960938 C 533.566406 96.011719 533.925781 96.464844 533.871094 96.96875 C 533.816406 97.433594 533.417969 97.792969 532.964844 97.792969 C 532.941406 97.792969 532.898438 97.792969 532.875 97.792969 C 532.328125 97.742188 531.824219 97.6875 531.34375 97.648438 C 528.882812 97.421875 527.261719 97.277344 526.421875 96.132812 C 525.785156 95.257812 525.945312 94.167969 526.117188 93.410156 C 526.277344 92.746094 526.449219 91.976562 526.636719 91.175781 C 524.894531 93.582031 522.433594 95.003906 519.375 95.269531 C 519.027344 95.296875 518.683594 95.308594 518.351562 95.308594 C 514.308594 95.308594 510.957031 93.117188 508.828125 89.050781 C 506.648438 84.867188 506.15625 79.046875 507.816406 77.054688 C 513.683594 70.105469 524.878906 73.695312 527.527344 75.339844 Z M 535.292969 76.695312 C 535.253906 76.738281 535.199219 76.816406 535.160156 76.871094 C 535.160156 77.027344 535.132812 77.203125 535.027344 77.347656 C 534.960938 77.453125 534.855469 77.535156 534.761719 77.601562 C 534.214844 79.007812 533.976562 81.691406 535.054688 84.535156 C 536.105469 87.285156 539.203125 91.910156 548.113281 91.910156 C 556.226562 91.910156 559.300781 87.804688 560.457031 84.347656 C 561.824219 80.242188 560.75 76.484375 560.148438 76.046875 C 557.558594 74.09375 544.960938 68.085938 535.292969 76.695312 Z M 509.226562 78.277344 C 508.363281 79.300781 508.296875 84.109375 510.464844 88.242188 C 511.832031 90.859375 514.441406 93.902344 519.226562 93.476562 C 524.5625 93.011719 526.449219 88.414062 527.101562 85.71875 C 528.164062 81.28125 527.234375 77.308594 526.582031 76.894531 C 525.277344 76.085938 521.621094 74.71875 517.765625 74.71875 C 514.679688 74.71875 511.472656 75.582031 509.226562 78.277344 Z M 540.933594 108.980469 C 540.453125 109.152344 540.199219 109.671875 540.375 110.148438 C 540.507812 110.519531 540.867188 110.761719 541.238281 110.761719 C 541.34375 110.761719 541.4375 110.746094 541.542969 110.707031 C 541.742188 110.640625 546.558594 108.914062 548.804688 104.929688 C 550.402344 102.085938 549.417969 100.714844 548.914062 100.25 C 547.730469 99.175781 545.574219 99.480469 543.285156 101.046875 C 539.816406 103.441406 535.613281 103.796875 535.558594 103.796875 C 535.054688 103.839844 534.683594 104.277344 534.722656 104.78125 C 534.761719 105.285156 535.242188 105.660156 535.707031 105.617188 C 535.890625 105.605469 540.425781 105.21875 544.324219 102.550781 C 546.144531 101.300781 547.34375 101.300781 547.675781 101.605469 C 547.96875 101.871094 547.941406 102.734375 547.210938 104.023438 C 545.308594 107.398438 540.984375 108.953125 540.933594 108.980469 Z M 539.269531 69.042969 C 539.308594 69.003906 543.964844 65.136719 552.796875 68.738281 C 553.261719 68.925781 553.792969 68.710938 553.992188 68.234375 C 554.179688 67.769531 553.953125 67.238281 553.488281 67.039062 C 543.632812 63.027344 538.300781 67.464844 538.074219 67.664062 C 537.6875 67.996094 537.648438 68.566406 537.980469 68.949219 C 538.167969 69.164062 538.417969 69.269531 538.671875 69.269531 C 538.882812 69.269531 539.097656 69.191406 539.269531 69.042969 Z M 516.753906 69.042969 C 516.941406 68.882812 521.515625 65.164062 530.28125 68.726562 C 530.746094 68.910156 531.277344 68.699219 531.476562 68.21875 C 531.664062 67.753906 531.4375 67.222656 530.972656 67.023438 C 521.117188 63.011719 515.78125 67.449219 515.558594 67.648438 C 515.171875 67.980469 515.132812 68.550781 515.464844 68.9375 C 515.648438 69.148438 515.902344 69.257812 516.167969 69.257812 C 516.367188 69.269531 516.582031 69.191406 516.753906 69.042969 Z M 514.132812 268.484375 C 514.585938 268.484375 514.984375 268.152344 515.039062 267.6875 L 524.042969 200.476562 C 525.464844 188.597656 529.148438 180.535156 532.140625 176.960938 C 532.460938 176.574219 532.40625 175.992188 532.023438 175.671875 C 531.636719 175.355469 531.050781 175.40625 530.730469 175.792969 C 529.203125 177.625 524.070312 184.8125 522.21875 200.25 L 513.214844 267.449219 C 513.148438 267.953125 513.496094 268.40625 514 268.472656 C 514.054688 268.472656 514.09375 268.484375 514.132812 268.484375 Z M 611.378906 173.292969 C 611.261719 173.71875 608.574219 183.871094 609.171875 194.207031 C 609.453125 199.09375 607.789062 203.332031 606.019531 207.808594 C 604.199219 212.445312 602.308594 217.242188 602.617188 222.96875 C 602.894531 228.042969 601.125 234.289062 599.238281 240.902344 C 597.242188 247.917969 594.996094 255.851562 594.875 263.703125 L 510.078125 291.214844 C 509.597656 291.375 509.332031 291.894531 509.492188 292.371094 C 509.613281 292.757812 509.972656 293.007812 510.371094 293.007812 C 510.464844 293.007812 510.554688 292.996094 510.648438 292.96875 L 596.074219 265.253906 C 596.445312 265.136719 596.710938 264.777344 596.710938 264.378906 C 596.710938 256.566406 598.890625 248.863281 601.007812 241.421875 C 602.921875 234.660156 604.742188 228.269531 604.449219 222.890625 C 604.160156 217.574219 605.980469 212.964844 607.734375 208.5 C 609.492188 204.035156 611.3125 199.425781 611.007812 194.125 C 610.421875 184.09375 613.136719 173.890625 613.164062 173.800781 C 613.296875 173.308594 613.003906 172.804688 612.511719 172.671875 C 612.019531 172.523438 611.511719 172.804688 611.378906 173.292969 Z M 585.40625 84.8125 C 585.019531 85.144531 584.96875 85.71875 585.300781 86.101562 C 585.484375 86.316406 585.738281 86.433594 586.003906 86.433594 C 586.203125 86.433594 586.417969 86.367188 586.589844 86.222656 C 586.75 86.089844 590.472656 82.925781 589.609375 78.410156 C 588.890625 74.652344 585.460938 73.507812 583.730469 73.429688 C 583.171875 73.386719 582.800781 73.800781 582.773438 74.292969 C 582.746094 74.796875 583.132812 75.222656 583.636719 75.25 C 583.785156 75.261719 587.175781 75.472656 587.800781 78.742188 C 588.453125 82.195312 585.433594 84.789062 585.40625 84.8125 Z M 194.28125 313.1875 C 186.980469 312.617188 180.675781 312.140625 177.175781 311.328125 C 164.980469 308.539062 162.441406 299.105469 162.347656 298.707031 C 162.230469 298.21875 161.722656 297.925781 161.230469 298.042969 C 160.738281 298.164062 160.445312 298.667969 160.566406 299.148438 C 160.671875 299.585938 163.4375 310.066406 176.765625 313.109375 C 180.394531 313.933594 186.460938 314.410156 194.132812 315.007812 C 213.246094 316.496094 242.011719 318.714844 257.972656 329.25 L 247.972656 382.578125 C 247.878906 383.070312 248.210938 383.546875 248.703125 383.640625 C 248.753906 383.65625 248.820312 383.65625 248.875 383.65625 C 249.3125 383.65625 249.6875 383.347656 249.78125 382.910156 L 259.902344 328.984375 C 259.96875 328.628906 259.820312 328.269531 259.515625 328.054688 C 243.261719 316.988281 213.792969 314.703125 194.28125 313.1875 Z M 308.113281 381.105469 C 307.621094 380.972656 307.113281 381.261719 306.996094 381.753906 L 287.125 457.324219 L 280.34375 454.972656 C 279.863281 454.796875 279.34375 455.0625 279.171875 455.542969 C 279 456.019531 279.265625 456.539062 279.730469 456.710938 L 287.445312 459.382812 C 287.535156 459.421875 287.644531 459.433594 287.75 459.433594 C 287.894531 459.433594 288.042969 459.394531 288.175781 459.328125 C 288.402344 459.207031 288.5625 458.996094 288.628906 458.757812 L 308.75 382.234375 C 308.894531 381.730469 308.601562 381.238281 308.113281 381.105469 Z M 249.9375 468.257812 C 249.738281 468.414062 245.125 472.347656 245.644531 478.9375 C 245.683594 479.414062 246.082031 479.773438 246.5625 479.773438 C 246.585938 479.773438 246.613281 479.773438 246.640625 479.773438 C 247.144531 479.734375 247.519531 479.296875 247.480469 478.792969 C 247.027344 473.171875 251.082031 469.703125 251.121094 469.664062 C 251.507812 469.332031 251.5625 468.761719 251.242188 468.375 C 250.910156 467.992188 250.339844 467.9375 249.9375 468.257812 Z M 331.664062 537.0625 C 331.851562 536.597656 331.625 536.066406 331.160156 535.867188 C 330.679688 535.667969 330.160156 535.90625 329.960938 536.371094 C 329.871094 536.609375 327.582031 542.402344 331.304688 547.703125 C 331.480469 547.957031 331.769531 548.089844 332.050781 548.089844 C 332.238281 548.089844 332.410156 548.035156 332.582031 547.914062 C 332.996094 547.625 333.101562 547.050781 332.808594 546.640625 C 329.667969 542.1875 331.636719 537.113281 331.664062 537.0625 Z M 170.382812 270.757812 C 170.460938 270.796875 170.542969 270.824219 170.632812 270.835938 L 189.332031 273.160156 C 189.375 273.160156 189.414062 273.175781 189.453125 273.175781 C 189.90625 273.175781 190.304688 272.828125 190.359375 272.375 C 190.425781 271.871094 190.066406 271.421875 189.558594 271.355469 L 172.109375 269.175781 C 187.789062 254.734375 209.90625 233.371094 210.160156 233.132812 C 210.347656 232.960938 210.441406 232.707031 210.441406 232.453125 C 210.441406 232.203125 210.320312 231.960938 210.132812 231.789062 L 208.417969 230.234375 L 216.464844 230.34375 C 216.464844 230.34375 216.476562 230.34375 216.476562 230.34375 C 216.984375 230.34375 217.382812 229.941406 217.394531 229.4375 C 217.394531 228.933594 216.996094 228.523438 216.492188 228.507812 L 206.835938 228.390625 L 191.339844 190.925781 C 191.140625 190.460938 190.609375 190.234375 190.144531 190.433594 C 189.679688 190.617188 189.453125 191.164062 189.652344 191.628906 L 203.9375 226.195312 L 183.121094 207.359375 C 182.816406 207.078125 182.351562 207.039062 181.992188 207.277344 L 165.207031 218.519531 L 165.925781 153.683594 L 161.617188 146.085938 L 155.0625 156.128906 L 151.125 170.320312 L 148.277344 157.445312 L 131.242188 143.480469 L 123.207031 150.085938 L 160.621094 221.601562 L 142.28125 233.890625 C 141.855469 234.167969 141.746094 234.738281 142.027344 235.164062 C 142.304688 235.589844 142.878906 235.695312 143.304688 235.417969 L 182.417969 209.21875 L 208.179688 232.492188 C 203.628906 236.890625 178.175781 261.390625 164.421875 273.691406 C 146.242188 289.964844 116.652344 290.628906 104.28125 280.335938 C 89.441406 267.980469 85.542969 257.335938 85.515625 257.230469 C 85.34375 256.753906 84.824219 256.5 84.347656 256.671875 C 83.867188 256.847656 83.617188 257.363281 83.789062 257.84375 C 83.949219 258.292969 87.84375 269.027344 103.113281 281.742188 C 109.230469 286.832031 117.675781 289.050781 126.625 289.050781 C 140.789062 289.050781 156.203125 283.511719 165.648438 275.058594 C 167.109375 273.746094 168.707031 272.296875 170.382812 270.757812 Z M 121.574219 224.761719 C 121.613281 224.761719 121.652344 224.761719 121.691406 224.75 C 122.199219 224.683594 122.542969 224.21875 122.476562 223.710938 L 119.578125 202.390625 C 119.511719 201.882812 119.058594 201.539062 118.539062 201.605469 C 118.035156 201.671875 117.6875 202.136719 117.753906 202.640625 L 120.65625 223.964844 C 120.722656 224.429688 121.121094 224.761719 121.574219 224.761719 Z M 151.152344 96.558594 C 151.152344 97.832031 152.1875 98.871094 153.464844 98.871094 C 154.742188 98.871094 155.777344 97.832031 155.777344 96.558594 C 155.777344 95.28125 154.742188 94.246094 153.464844 94.246094 C 152.1875 94.246094 151.152344 95.28125 151.152344 96.558594 Z M 177.777344 96.558594 C 177.777344 97.832031 178.8125 98.871094 180.089844 98.871094 C 181.367188 98.871094 182.40625 97.832031 182.40625 96.558594 C 182.40625 95.28125 181.367188 94.246094 180.089844 94.246094 C 178.8125 94.246094 177.777344 95.28125 177.777344 96.558594 Z M 175.941406 109.910156 C 176.3125 109.324219 176.351562 108.632812 176.0625 107.945312 C 174.945312 105.339844 171.539062 99.070312 171.390625 98.804688 C 171.152344 98.363281 170.59375 98.191406 170.140625 98.429688 C 169.703125 98.671875 169.53125 99.226562 169.769531 99.679688 C 169.808594 99.746094 173.28125 106.148438 174.359375 108.675781 C 174.425781 108.847656 174.398438 108.886719 174.371094 108.925781 C 173.933594 109.605469 171.367188 110.121094 169.25 110.175781 C 168.746094 110.1875 168.347656 110.613281 168.359375 111.117188 C 168.375 111.609375 168.785156 112.007812 169.277344 112.007812 C 169.292969 112.007812 169.292969 112.007812 169.304688 112.007812 C 170.222656 111.984375 174.757812 111.769531 175.941406 109.910156 Z M 167.601562 120.445312 C 168.746094 120.445312 170.074219 120.246094 171.617188 119.726562 C 172.097656 119.570312 172.363281 119.050781 172.203125 118.570312 C 172.042969 118.09375 171.527344 117.828125 171.046875 117.988281 C 165.261719 119.914062 163.332031 116.710938 163.253906 116.566406 C 163.015625 116.128906 162.457031 115.96875 162.015625 116.207031 C 161.578125 116.445312 161.40625 117.003906 161.644531 117.457031 C 161.722656 117.601562 163.332031 120.445312 167.601562 120.445312 Z M 163.574219 88.691406 C 163.730469 88.8125 163.929688 88.867188 164.117188 88.867188 C 164.398438 88.867188 164.675781 88.734375 164.863281 88.492188 C 165.15625 88.082031 165.074219 87.511719 164.664062 87.21875 C 155.910156 80.816406 145.9375 87.125 145.84375 87.191406 C 145.417969 87.472656 145.296875 88.027344 145.578125 88.453125 C 145.855469 88.878906 146.414062 89 146.839844 88.734375 C 147.1875 88.492188 155.859375 83.046875 163.574219 88.691406 Z M 172.644531 87.21875 C 172.230469 87.523438 172.152344 88.09375 172.457031 88.492188 C 172.761719 88.90625 173.335938 88.984375 173.734375 88.679688 C 174 88.480469 180.421875 83.84375 185.53125 88.613281 C 185.703125 88.773438 185.929688 88.867188 186.15625 88.867188 C 186.394531 88.867188 186.648438 88.773438 186.820312 88.574219 C 187.164062 88.203125 187.152344 87.628906 186.78125 87.285156 C 180.554688 81.480469 172.722656 87.164062 172.644531 87.21875 Z M 94.09375 87.417969 C 93.628906 105.273438 104.230469 124.960938 125.324219 137.023438 L 120.042969 111.914062 C 120.042969 111.914062 110.585938 114.480469 108.351562 104.863281 C 106.117188 95.242188 118.3125 93.527344 118.3125 93.527344 L 120.03125 111.914062 C 120.03125 111.914062 127.160156 107.214844 132.304688 98.125 L 143.769531 98.125 C 144.007812 101.433594 145.738281 108.488281 156.136719 108.488281 C 165.089844 108.488281 167.601562 99.574219 168.066406 97.433594 C 168.8125 97.0625 170.753906 96.332031 172.734375 97.421875 C 173.1875 99.375 175.515625 107.371094 182.804688 107.371094 C 185.304688 107.371094 187.257812 106.667969 188.628906 105.300781 C 190.96875 102.949219 190.957031 99.214844 190.941406 97.210938 L 190.941406 96.835938 C 190.941406 96.332031 190.53125 95.921875 190.023438 95.921875 C 189.519531 95.921875 189.105469 96.332031 189.105469 96.835938 L 189.105469 97.210938 C 189.121094 99.070312 189.132812 102.191406 187.324219 103.996094 C 186.316406 105.019531 184.785156 105.527344 182.804688 105.527344 C 176.074219 105.527344 174.503906 97.023438 174.453125 96.664062 C 174.410156 96.410156 174.265625 96.1875 174.039062 96.054688 C 170.433594 93.726562 166.898438 95.960938 166.75 96.054688 C 166.539062 96.199219 166.378906 96.425781 166.339844 96.675781 C 166.273438 97.089844 164.664062 106.628906 156.125 106.628906 C 146.933594 106.628906 145.550781 100.714844 145.550781 97.183594 C 145.550781 96.675781 145.140625 96.265625 144.632812 96.265625 L 133.261719 96.265625 C 136.773438 89.277344 138.929688 80.019531 136.296875 68.578125 C 136.296875 68.578125 158.851562 80.097656 183.65625 75.089844 C 183.65625 75.089844 179.652344 54.816406 159.847656 50.3125 C 142.386719 46.339844 120.839844 45.6875 106.199219 59.824219 C 104.65625 57.273438 100.625 52.863281 91.582031 53.976562 C 79.039062 55.519531 74.066406 73.535156 80.929688 82.117188 C 84.984375 87.152344 90.332031 87.761719 94.09375 87.417969 Z M 155.621094 144.597656 C 156.390625 144.917969 158.8125 145.382812 161.605469 145.832031 L 161.296875 141.753906 C 155.074219 141.753906 153.4375 143.695312 155.621094 144.597656 Z M 133.15625 232.042969 C 132.652344 231.949219 132.183594 232.28125 132.09375 232.773438 C 131.984375 233.371094 129.433594 247.332031 132.835938 252.433594 C 133.011719 252.699219 133.300781 252.847656 133.59375 252.847656 C 133.769531 252.847656 133.941406 252.792969 134.101562 252.6875 C 134.527344 252.410156 134.632812 251.835938 134.351562 251.414062 C 131.867188 247.691406 133.167969 236.929688 133.886719 233.09375 C 133.980469 232.613281 133.648438 232.136719 133.15625 232.042969 Z M 125.070312 235.46875 C 124.566406 235.378906 124.097656 235.710938 124.007812 236.199219 C 123.898438 236.796875 121.347656 250.761719 124.75 255.863281 C 124.925781 256.128906 125.214844 256.273438 125.507812 256.273438 C 125.683594 256.273438 125.855469 256.222656 126.015625 256.117188 C 126.441406 255.835938 126.546875 255.265625 126.265625 254.839844 C 123.78125 251.121094 125.082031 240.359375 125.800781 236.53125 C 125.894531 236.042969 125.5625 235.5625 125.070312 235.46875 Z M 117.582031 239.722656 C 117.078125 239.628906 116.613281 239.960938 116.519531 240.453125 C 116.414062 241.050781 113.859375 255.011719 117.261719 260.113281 C 117.4375 260.378906 117.730469 260.527344 118.023438 260.527344 C 118.195312 260.527344 118.367188 260.472656 118.527344 260.367188 C 118.953125 260.085938 119.058594 259.515625 118.78125 259.089844 C 116.292969 255.371094 117.597656 244.609375 118.3125 240.785156 C 118.40625 240.292969 118.074219 239.8125 117.582031 239.722656 Z M 283 99.496094 C 272.28125 99.496094 270.261719 92.492188 270.023438 88.253906 C 269.941406 86.832031 269.582031 82.195312 269.089844 75.765625 C 267.585938 56.050781 265.0625 23.050781 265.300781 15.957031 C 265.621094 6.3125 272.335938 1.261719 278.785156 1.261719 C 281.433594 1.261719 312.113281 0.984375 344.578125 0.691406 C 381.910156 0.34375 420.492188 0 424.324219 0 C 431.492188 0 434.988281 4.304688 434.988281 13.164062 C 434.988281 19.171875 435.1875 45.039062 435.242188 52.824219 C 435.28125 57.0625 437.648438 60.914062 441.425781 62.851562 L 476.921875 81.105469 C 477.308594 81.304688 477.492188 81.746094 477.386719 82.15625 C 477.28125 82.570312 476.976562 82.886719 476.457031 82.835938 L 442.371094 81.320312 C 438.539062 81.148438 434.960938 82.859375 432.726562 85.890625 C 430.8125 88.492188 428.019531 89.996094 424.414062 90.367188 C 416.144531 91.21875 293.972656 99.136719 283.851562 99.480469 C 283.574219 99.496094 283.28125 99.496094 283 99.496094 Z M 283.800781 97.648438 C 293.90625 97.316406 415.96875 89.398438 424.230469 88.546875 C 427.300781 88.226562 429.65625 86.980469 431.25 84.8125 C 433.84375 81.292969 438.019531 79.300781 442.449219 79.5 L 472.359375 80.828125 L 440.585938 64.488281 C 436.199219 62.230469 433.445312 57.765625 433.40625 52.835938 C 433.339844 45.050781 433.152344 19.171875 433.152344 13.164062 C 433.152344 5.328125 430.425781 1.832031 424.324219 1.832031 C 420.492188 1.832031 381.910156 2.179688 344.605469 2.523438 C 312.128906 2.816406 281.460938 3.09375 278.800781 3.09375 C 273.226562 3.09375 267.429688 7.53125 267.148438 16.023438 C 266.910156 23.011719 269.53125 57.246094 270.9375 75.632812 C 271.429688 82.078125 271.789062 86.726562 271.871094 88.160156 C 272.230469 94.699219 276.246094 97.898438 283.800781 97.648438 Z M 289.171875 24.125 L 408.933594 23.183594 C 409.441406 23.183594 409.851562 22.769531 409.839844 22.265625 C 409.839844 21.761719 409.425781 21.363281 408.921875 21.363281 C 408.921875 21.363281 408.921875 21.363281 408.910156 21.363281 L 289.160156 22.304688 C 288.652344 22.304688 288.242188 22.71875 288.253906 23.222656 C 288.253906 23.714844 288.667969 24.125 289.171875 24.125 Z M 289.480469 43.640625 C 288.972656 43.640625 288.5625 44.054688 288.574219 44.558594 C 288.574219 45.0625 288.988281 45.460938 289.492188 45.460938 C 289.492188 45.460938 289.492188 45.460938 289.503906 45.460938 L 409.253906 44.519531 C 409.757812 44.519531 410.171875 44.109375 410.160156 43.601562 C 410.160156 43.097656 409.707031 42.710938 409.242188 42.699219 Z M 409.867188 65.617188 L 290.105469 66.558594 C 289.597656 66.558594 289.1875 66.972656 289.199219 67.476562 C 289.199219 67.980469 289.613281 68.378906 290.117188 68.378906 C 290.117188 68.378906 290.117188 68.378906 290.128906 68.378906 L 409.878906 67.4375 C 410.382812 67.4375 410.796875 67.023438 410.785156 66.519531 C 410.785156 66.027344 410.371094 65.617188 409.867188 65.617188 Z M 566.042969 128.617188 C 566.042969 126.503906 564.113281 125.148438 554.085938 127.113281 L 555.855469 135.988281 C 560.441406 133.34375 566.042969 129.863281 566.042969 128.617188 Z M 566.042969 128.617188 " fill-opacity="1" fill-rule="nonzero"/></svg>