<svg width="98" height="98" viewBox="0 0 98 98" fill="none" xmlns="http://www.w3.org/2000/svg">
<path d="M49 4.25146C40.1496 4.25146 31.4979 6.87592 24.139 11.7929C16.7802 16.71 11.0447 23.6987 7.65776 31.8754C4.27085 40.0522 3.38468 49.0496 5.11131 57.7299C6.83794 66.4103 11.0998 74.3837 17.358 80.6419C23.6162 86.9001 31.5896 91.162 40.27 92.8886C48.9503 94.6152 57.9478 93.7291 66.1245 90.3422C74.3012 86.9553 81.29 81.2197 86.207 73.8609C91.124 66.502 93.7485 57.8504 93.7485 49C93.7351 37.136 89.0162 25.7618 80.6272 17.3728C72.2381 8.98369 60.8639 4.26484 49 4.25146ZM49 91.0687C40.6796 91.0687 32.546 88.6015 25.6278 83.9789C18.7096 79.3563 13.3176 72.786 10.1335 65.099C6.94938 57.4119 6.11628 48.9533 7.73951 40.7927C9.36275 32.6322 13.3694 25.1362 19.2528 19.2528C25.1363 13.3694 32.6322 9.36273 40.7928 7.73949C48.9533 6.11626 57.4119 6.94936 65.099 10.1334C72.7861 13.3175 79.3563 18.7096 83.9789 25.6278C88.6015 32.546 91.0688 40.6795 91.0688 49C91.0562 60.1534 86.6199 70.8465 78.7332 78.7332C70.8465 86.6199 60.1535 91.0562 49 91.0687Z" fill="black"/>
<path d="M72.1753 35.0909L57.055 41.3522V37.3074C57.054 36.3432 56.6705 35.4187 55.9887 34.7369C55.3069 34.0551 54.3825 33.6717 53.4183 33.6707H24.4355C23.4713 33.6717 22.5469 34.0551 21.8651 34.7369C21.1833 35.4187 20.7998 36.3432 20.7988 37.3074V60.6926C20.7998 61.6568 21.1833 62.5813 21.8651 63.2631C22.5469 63.9449 23.4713 64.3283 24.4355 64.3293H53.4183C54.3825 64.3283 55.3069 63.9449 55.9887 63.2631C56.6705 62.5813 57.054 61.6568 57.055 60.6926V56.6478L72.173 62.9076C72.7251 63.1378 73.3255 63.228 73.9208 63.1701C74.5161 63.1122 75.0879 62.908 75.5852 62.5757C76.0826 62.2434 76.49 61.7933 76.7714 61.2655C77.0527 60.7376 77.1992 60.1484 77.1978 59.5503V38.4497C77.1982 37.8521 77.0511 37.2637 76.7697 36.7366C76.4883 36.2094 76.0812 35.7598 75.5845 35.4277C75.0877 35.0955 74.5167 34.891 73.9221 34.8322C73.3274 34.7735 72.7274 34.8623 72.1753 35.0909ZM53.4175 61.6497H24.4355C24.1818 61.6495 23.9385 61.5486 23.759 61.3691C23.5796 61.1897 23.4787 60.9464 23.4785 60.6926V37.3074C23.4787 37.0536 23.5796 36.8103 23.759 36.6309C23.9385 36.4514 24.1818 36.3505 24.4355 36.3503H53.4183C53.672 36.3505 53.9153 36.4514 54.0948 36.6309C54.2742 36.8103 54.3751 37.0536 54.3753 37.3074V60.6926C54.3751 60.9464 54.2742 61.1897 54.0948 61.3691C53.9153 61.5486 53.672 61.6495 53.4183 61.6497H53.4175ZM74.5181 59.5503C74.5188 59.7073 74.4807 59.8621 74.4071 60.0008C74.3334 60.1395 74.2266 60.2578 74.0962 60.3452C73.9657 60.4326 73.8157 60.4864 73.6594 60.5017C73.5031 60.517 73.3455 60.4935 73.2005 60.4331L57.055 53.7469V44.2531L73.2036 37.5662C73.3484 37.5064 73.5058 37.4833 73.6617 37.499C73.8176 37.5147 73.9673 37.5686 74.0973 37.6561C74.2274 37.7435 74.3339 37.8617 74.4073 38.0001C74.4807 38.1385 74.5188 38.293 74.5181 38.4497V59.5503Z" fill="black"/>
</svg>
