<svg width="34" height="34" viewBox="0 0 34 34" fill="none" xmlns="http://www.w3.org/2000/svg">
<path d="M0.5 16.7552C0.5 7.62035 7.8873 0.215088 17 0.215088C26.1127 0.215088 33.5 7.62035 33.5 16.7552C33.5 25.3368 26.9805 32.3919 18.6356 33.2151C18.6802 33.2072 18.7248 33.1988 18.7694 33.1898V21.5032H23.059L23.7009 16.5107H18.7694V13.3232C18.7694 11.8777 19.1696 10.8929 21.2376 10.8929L23.8746 10.8916V6.42644C23.4185 6.3654 21.8532 6.22968 20.0318 6.22968C16.2296 6.22968 13.6262 8.55609 13.6262 12.829V16.5107H9.32553V21.5032H13.6262V32.9493C6.13161 31.3883 0.5 24.731 0.5 16.7552Z" fill="#2DD3E3"/>
</svg>
